<?xml version="1.0" encoding="UTF-8" standalone="no"?>
<!-- Created with Inkscape (http://www.inkscape.org/) -->

<svg
   xmlns:dc="http://purl.org/dc/elements/1.1/"
   xmlns:cc="http://creativecommons.org/ns#"
   xmlns:rdf="http://www.w3.org/1999/02/22-rdf-syntax-ns#"
   xmlns:svg="http://www.w3.org/2000/svg"
   xmlns="http://www.w3.org/2000/svg"
   xmlns:sodipodi="http://sodipodi.sourceforge.net/DTD/sodipodi-0.dtd"
   xmlns:inkscape="http://www.inkscape.org/namespaces/inkscape"
   width="492.88574mm"
   height="30.169964mm"
   viewBox="0 0 492.88575 30.169963"
   version="1.1"
   id="svg8"
   inkscape:version="0.92.3 (2405546, 2018-03-11)"
   sodipodi:docname="IngressAlphabetNumeric_TDL.svg">
  <defs
     id="defs2" />
  <sodipodi:namedview
     id="base"
     pagecolor="#ffffff"
     bordercolor="#666666"
     borderopacity="1.0"
     inkscape:pageopacity="0.0"
     inkscape:pageshadow="2"
     inkscape:zoom="0.7"
     inkscape:cx="868.05978"
     inkscape:cy="34.955383"
     inkscape:document-units="mm"
     inkscape:current-layer="layer1"
     showgrid="false"
     fit-margin-top="0"
     fit-margin-left="0"
     fit-margin-right="0"
     fit-margin-bottom="0"
     inkscape:window-width="1920"
     inkscape:window-height="1017"
     inkscape:window-x="-8"
     inkscape:window-y="-8"
     inkscape:window-maximized="1" />
  <metadata
     id="metadata5">
    <rdf:RDF>
      <cc:Work
         rdf:about="">
        <dc:format>image/svg+xml</dc:format>
        <dc:type
           rdf:resource="http://purl.org/dc/dcmitype/StillImage" />
        <dc:title></dc:title>
      </cc:Work>
    </rdf:RDF>
  </metadata>
  <g
     inkscape:label="Layer 1"
     inkscape:groupmode="layer"
     id="layer1"
     transform="translate(145.19321,-177.83796)">
    <path
       style="fill:#000000;fill-opacity:1;stroke:#000000;stroke-width:0.99999994px;stroke-linecap:butt;stroke-linejoin:miter;stroke-opacity:1"
       d="M 7.2851562,1.8398438 0.5,8.625 V 51.677734 H 0.94726562 7.9375 V 39.072266 h 5.263672 1.603516 v -7.769532 h -1.603516 -4.9335939 -0.3125 V 11.080078 L 10.679688,8.3574219 h 12.5 l 3.480468,3.4824221 v 19.46289 h -7.152344 v 7.769532 h 8.046876 v 12.96289 H 33 V 9.1601562 L 25.679688,1.8398438 Z"
       transform="matrix(0.26458333,0,0,0.26458333,-145.19321,177.83796)"
       id="path1241"
       inkscape:connector-curvature="0" />
    <path
       style="fill:#000000;fill-opacity:1;stroke:#000000;stroke-width:0.26458332px;stroke-linecap:butt;stroke-linejoin:miter;stroke-opacity:1"
       d="m -127.13644,178.25939 -6.49056,0.0176 v 13.22946 h 6.80372 l 1.68879,-1.6893 v -1.25677 h -1.86604 v 0.26458 l -0.74414,0.74414 h -4.08709 v -3.54323 -0.12403 h 3.95118 l 0.88005,0.87954 v 0.27181 h 1.86604 v -0.8387 l -1.29346,-1.29346 1.22266,-1.22215 v -0.95705 h -1.79524 v 0.24805 l -0.74414,0.74414 h -4.08709 v -3.42512 -0.12402 h 3.95118 l 0.88005,0.88005 v 0.28784 h 1.79524 v -1.16221 z"
       id="path1243"
       inkscape:connector-curvature="0"
       sodipodi:nodetypes="cccccccccccccccccccccccccccccccc" />
    <path
       sodipodi:nodetypes="cccccccccccccccccccccc"
       inkscape:connector-curvature="0"
       id="path1245"
       d="m -122.91422,180.13012 v 9.78874 l 1.68714,1.68714 h 5.29528 l 1.41152,-1.41152 v -2.71445 h -1.91265 v 1.30294 l -0.98555,0.98555 h -2.62259 l -1.09413,-1.09413 v -7.17452 l 1.28206,-1.28206 h 2.31772 l 1.20898,1.20898 v 1.10875 h 1.79781 v -2.50565 l -1.97112,-1.97112 h -4.51017 l -1.88759,1.8876 z"
       style="fill:#000000;fill-opacity:1;stroke:#000000;stroke-width:0.26458332px;stroke-linecap:butt;stroke-linejoin:miter;stroke-opacity:1" />
    <path
       style="fill:#000000;fill-opacity:1;stroke:none;stroke-width:0.99999994px;stroke-linecap:butt;stroke-linejoin:miter;stroke-opacity:1"
       d="M 148.84766,0.00809151 123.80469,0.23074773 V 52.244429 h 7.58789 V 45.103804 8.8928571 8.0647321 h 14.04101 l 4.12891,4.1308589 v 29.023447 l -3.88281,3.884766 h -9.53907 v 7.140625 h 14.44922 l 6.42774,-6.429688 V 8.1780133 Z"
       transform="matrix(0.26458333,0,0,0.26458333,-145.19321,177.83796)"
       id="path1247"
       inkscape:connector-curvature="0"
       sodipodi:nodetypes="ccccccccccccccccc" />
    <path
       inkscape:connector-curvature="0"
       id="path1249"
       d="m -101.21557,178.15899 v 13.32366 h 8.315478 v -1.96075 h -6.37835 v -3.96875 h 5.315289 v -1.86626 h -5.338911 v -3.54352 h 6.401972 c 0,0 0.0473,-2.008 0,-2.008 -0.0472,0 -8.362728,0 -8.362728,0 z"
       style="fill:#000000;fill-opacity:1;stroke:#000000;stroke-width:0.26458332px;stroke-linecap:butt;stroke-linejoin:miter;stroke-opacity:1" />
    <path
       sodipodi:nodetypes="cccccccccccc"
       inkscape:connector-curvature="0"
       id="path1251"
       d="m -90.561374,191.51488 h 1.98437 v -5.631 h 4.181574 v -1.93713 h -4.323303 v -3.77976 h 5.669842 v -2.03162 h -7.772341 v 13.3795 z"
       style="fill:#000000;fill-opacity:1;stroke:#000000;stroke-width:0.26458332px;stroke-linecap:butt;stroke-linejoin:miter;stroke-opacity:1" />
    <path
       sodipodi:nodetypes="cccccccccccccccccccccccc"
       inkscape:connector-curvature="0"
       id="path1253"
       d="m -81.088343,180.09612 v 9.26496 l 2.137931,2.13793 h 5.01999 l 1.801299,-1.80129 v -5.11313 h -3.667559 v 1.96075 h 1.819011 v 2.01254 l -0.980372,0.98038 h -3.224609 l -0.891791,-0.89179 v -7.62903 l 0.82387,-0.82387 h 3.37521 l 0.71904,0.71904 v 1.07339 h 1.8323 v -1.98437 l -1.90169,-1.9017 h -5.3271 l -1.541441,1.56506 z"
       style="fill:#000000;fill-opacity:1;stroke:#000000;stroke-width:0.26458332px;stroke-linecap:butt;stroke-linejoin:miter;stroke-opacity:1" />
    <path
       inkscape:connector-curvature="0"
       id="path1255"
       d="m -69.760994,178.19241 v 13.26325 h 2.004521 v -5.98015 h 5.378802 v 5.98015 h 1.870879 v -13.33007 h -2.07133 v 5.07812 h -5.178351 v -5.11153 h -2.01621 z"
       style="fill:#000000;fill-opacity:1;stroke:#000000;stroke-width:0.26458332px;stroke-linecap:butt;stroke-linejoin:miter;stroke-opacity:1" />
    <path
       sodipodi:nodetypes="ccccc"
       inkscape:connector-curvature="0"
       id="path1257"
       d="m -57.842803,178.11174 v 13.30004 h 2.10249 v -13.27641 z"
       style="fill:#000000;fill-opacity:1;stroke:#000000;stroke-width:0.26458332px;stroke-linecap:butt;stroke-linejoin:miter;stroke-opacity:1" />
    <path
       sodipodi:nodetypes="cccccccccccccc"
       inkscape:connector-curvature="0"
       id="path1259"
       d="m -53.992173,189.54553 1.85444,1.85444 h 4.831012 l 1.801288,-1.80129 v -11.46331 h -2.0139 v 10.44159 l -0.90951,0.90951 h -2.799379 l -0.879981,-0.87998 v -1.58868 -0.0561 l -1.885449,0.004 z"
       style="fill:#000000;fill-opacity:1;stroke:#000000;stroke-width:0.26458332px;stroke-linecap:butt;stroke-linejoin:miter;stroke-opacity:1" />
    <path
       inkscape:connector-curvature="0"
       id="path1261"
       d="m -42.743395,178.12225 v 13.32969 h 1.85754 v -5.01054 l 2.19935,-2.19935 2.6293,2.62929 v 4.59714 h 2.06705 v -5.88698 l -3.10058,-3.10059 4.22506,-4.22506 h -2.96002 l -5.13457,5.13457 v -5.26686 z"
       style="fill:#000000;fill-opacity:1;stroke:#000000;stroke-width:0.26458332px;stroke-linecap:butt;stroke-linejoin:miter;stroke-opacity:1" />
    <path
       sodipodi:nodetypes="ccccccc"
       inkscape:connector-curvature="0"
       id="path1263"
       d="m -31.377755,178.19241 v 13.2833 h 6.625044 v -2.22168 h -4.496924 v -11.07331 z"
       style="fill:#000000;fill-opacity:1;stroke:#000000;stroke-width:0.26458332px;stroke-linecap:butt;stroke-linejoin:miter;stroke-opacity:1" />
    <path
       inkscape:connector-curvature="0"
       id="path1265"
       d="m -21.508815,191.42894 v -13.35346 h 1.96443 l 4.47843,4.47844 4.58368,-4.58367 h 2.1164396 v 13.48207 h -2.1281296 v -10.61728 l -3.57808,3.57807 v 7.08598 h -2.0112 v -6.92228 l -3.54299,-3.54299 v 10.37173 z"
       style="fill:#000000;fill-opacity:1;stroke:#000000;stroke-width:0.26458332px;stroke-linecap:butt;stroke-linejoin:miter;stroke-opacity:1" />
    <path
       sodipodi:nodetypes="cccccccccccc"
       inkscape:connector-curvature="0"
       id="path1267"
       d="m -5.5547854,191.38199 v -13.22164 h 2.21852 l 4.90751,9.05672 v -9.11038 h 1.94483 v 13.29318 h -2.32586 l -5.04393,-9.26766 v 9.30345 h -1.71896 z"
       style="fill:#000000;fill-opacity:1;stroke:#000000;stroke-width:0.28625983px;stroke-linecap:butt;stroke-linejoin:miter;stroke-opacity:1" />
    <path
       style="fill:#000000;fill-opacity:1;stroke:#000000;stroke-width:0.28625983px;stroke-linecap:butt;stroke-linejoin:miter;stroke-opacity:1"
       d="m 17.236665,178.06715 v 13.38471 l 1.94768,0.0253 v -4.35167 h 4.68085 l 2.04949,-2.04948 v -1.649 h -2.12493 v 0.86455 l -0.82269,0.82217 -3.75688,-0.0377 v -5.03536 h 3.49126 l 1.08831,1.08779 v 0.90951 h 2.12493 v -1.6428 l -2.32751,-2.32802 z"
       id="path1269"
       inkscape:connector-curvature="0" />
    <path
       style="fill:#000000;fill-opacity:1;stroke:#000000;stroke-width:0.28625983px;stroke-linecap:butt;stroke-linejoin:miter;stroke-opacity:1"
       d="m 28.976515,178.40253 -1.67018,1.53686 v 9.64023 l 1.78438,1.78388 h 9.29815 v -1.70791 h -1.74615 l -0.49299,0.49351 v -9.88053 l -1.86656,-1.86604 h -1.95337 v 1.64744 h 0.86248 l 1.35651,1.35703 v 7.24245 l -0.91674,0.91777 h -3.60547 l -0.94878,-0.94878 v -7.54011 l 1.13792,-1.02836 h 0.72502 v -1.64744 h -1.73684 z"
       id="path1271"
       inkscape:connector-curvature="0" />
    <path
       style="fill:#000000;fill-opacity:1;stroke:#000000;stroke-width:0.28625983px;stroke-linecap:butt;stroke-linejoin:miter;stroke-opacity:1"
       d="m 39.983075,178.14311 v 13.42567 h 1.97352 v -4.79777 h 1.43764 v -2.11615 h -1.44797 v -4.36562 l -0.004,-0.0269 h 3.62717 l 0.88573,0.88573 v 2.71973 l -0.78703,0.78703 h -0.8847 v 2.11615 h 0.84181 l 1.03714,1.03766 v 3.70895 h 1.99885 v -4.54404 l -1.24592,-1.24643 1.05678,-1.05627 v -4.8705 l -1.65726,-1.65727 z"
       id="path1273"
       inkscape:connector-curvature="0"
       sodipodi:nodetypes="ccccccccccccccccccccccccc" />
    <path
       inkscape:connector-curvature="0"
       id="path1275"
       d="m 50.508385,187.88241 v 1.92295 l 1.66995,1.66993 h 5.33871 l 1.44222,-1.4422 v -4.4259 l -1.80909,-1.80909 h -3.90916 l -1.03106,-1.03106 v -1.71421 l 0.86975,-0.86976 h 3.22285 l 0.6879,0.6879 v 1.06743 h 1.96881 v -1.77115 l -1.97355,-1.97355 h -4.78209 l -1.72053,1.72053 v 3.6435 l 1.99886,1.99886 h 3.64349 l 0.92352,0.92352 v 2.23727 l -1.11961,1.11962 h -2.56183 l -0.93934,-0.93934 v -1.01525 z"
       style="fill:#000000;fill-opacity:1;stroke:#000000;stroke-width:0.28625983px;stroke-linecap:butt;stroke-linejoin:miter;stroke-opacity:1"
       sodipodi:nodetypes="ccccccccccccccccccccccccccccc" />
    <path
       sodipodi:nodetypes="ccccccccc"
       inkscape:connector-curvature="0"
       id="path1277"
       d="m 63.538935,191.52591 v -11.53577 h -3.41577 v -1.97355 h 8.7545 v 1.99886 h -3.51698 v 11.53575 z"
       style="fill:#000000;fill-opacity:1;stroke:#000000;stroke-width:0.28625983px;stroke-linecap:butt;stroke-linejoin:miter;stroke-opacity:1" />
    <path
       sodipodi:nodetypes="cccccccccccccc"
       inkscape:connector-curvature="0"
       id="path1279"
       d="m 70.168075,178.1431 v 11.43553 l 1.91029,1.91031 h 5.83213 l 1.53709,-1.5371 V 178.1937 h -2.06844 v 10.37285 l -1.12594,1.12594 h -3.0995 l -1.14492,-1.14491 v -10.4551 h -1.84071 z"
       style="fill:#000000;fill-opacity:1;stroke:#000000;stroke-width:0.28625983px;stroke-linecap:butt;stroke-linejoin:miter;stroke-opacity:1" />
    <path
       inkscape:connector-curvature="0"
       id="path1281"
       d="m 80.719015,178.26961 4.40255,13.28159 h 2.37839 l 3.44108,-13.3069 h -1.99886 l -2.73471,10.40654 -3.33777,-10.40654 z"
       style="fill:#000000;fill-opacity:1;stroke:#000000;stroke-width:0.28625983px;stroke-linecap:butt;stroke-linejoin:miter;stroke-opacity:1"
       sodipodi:nodetypes="cccccccc" />
    <path
       sodipodi:nodetypes="ccccccccccccccc"
       inkscape:connector-curvature="0"
       id="path1283"
       d="m 91.472385,178.2443 4.30134,13.2482 h 2.27719 l 2.707305,-9.6047 3.31457,9.6047 h 2.22657 l 3.52826,-13.33465 h -2.06073 l -2.72007,10.31847 -3.35243,-10.30793 h -2.125365 l -2.70731,10.41437 -3.41578,-10.41437 h -1.99885 z"
       style="fill:#000000;fill-opacity:1;stroke:#000000;stroke-width:0.28625983px;stroke-linecap:butt;stroke-linejoin:miter;stroke-opacity:1" />
    <path
       inkscape:connector-curvature="0"
       id="path1285"
       d="m 110.50567,178.2856 3.6809,6.3755 -3.95297,6.84675 h 2.56215 l 2.91643,-5.0514 2.91912,5.05606 h 2.6449 l -4.02383,-6.96947 3.62007,-6.27013 h -2.63775 l -2.69514,4.66812 -2.70836,-4.69102 z"
       style="fill:#000000;fill-opacity:1;stroke:#000000;stroke-width:0.28625983px;stroke-linecap:butt;stroke-linejoin:miter;stroke-opacity:1" />
    <path
       sodipodi:nodetypes="ccccccccccccccccc"
       inkscape:connector-curvature="0"
       id="path1287"
       d="m 122.44206,178.15574 v 6.50262 l 2.14434,2.14435 h 4.75046 v 1.90399 l -0.90453,0.90454 h -5.25651 v 1.86602 h 6.54058 l 1.82806,-1.82806 v -11.60732 h -2.22025 v 6.78095 h -3.8459 l -1.02473,-1.02473 v -5.62971 z"
       style="fill:#000000;fill-opacity:1;stroke:#000000;stroke-width:0.28625983px;stroke-linecap:butt;stroke-linejoin:miter;stroke-opacity:1" />
    <path
       sodipodi:nodetypes="cccccccccccc"
       inkscape:connector-curvature="0"
       id="path1289"
       d="m 133.77739,178.1937 v 1.87235 h 5.99657 l -6.75564,9.48826 1.08273,1.87538 h 8.0513 v -1.95129 h -6.50261 l 6.90745,-9.58946 -1.02674,-1.77834 h -7.74827 z"
       style="fill:#000000;fill-opacity:1;stroke:#000000;stroke-width:0.28625983px;stroke-linecap:butt;stroke-linejoin:miter;stroke-opacity:1" />
    <path
       inkscape:connector-curvature="0"
       style="fill:#000000;fill-opacity:1;stroke:#000000;stroke-width:0.19007632px;stroke-linecap:butt;stroke-linejoin:miter;stroke-opacity:1"
       d="m 147.48516,178.4232 -2.09084,2.06137 v 8.83489 l 2.23345,2.23345 h 1.33895 v -2.25722 h -0.22222 l -1.11673,-1.11673 v -0.009 l 3.88453,-3.91684 v 4.1277 l -0.91469,0.91467 h -0.24183 v 2.25723 h 1.26349 l 2.1027,-2.10272 v -8.91808 l -2.10838,-2.10892 h -1.41026 v 2.03192 h 0.32917 l 0.9798,0.97979 v 0.0403 l -3.88453,3.98764 v -4.00417 l -0.003,-0.21653 0.78703,-0.78703 h 0.40257 V 178.423 Z"
       id="path1291"
       sodipodi:nodetypes="cccccccccccccccccccccccccccccc" />
    <path
       sodipodi:nodetypes="cccccccc"
       inkscape:connector-curvature="0"
       id="path1293"
       d="m 156.45927,178.2789 -1.59605,1.59604 h 1.19283 0.71688 v 11.67484 h 2.31847 v -13.27292 z"
       style="fill:#000000;fill-opacity:1;stroke:#000000;stroke-width:0.19007632px;stroke-linecap:butt;stroke-linejoin:miter;stroke-opacity:1" />
    <path
       inkscape:connector-curvature="0"
       id="path1295"
       d="m 161.91389,179.72584 v 2.48649 h 2.18409 v -1.37765 l 0.75602,-0.75603 h 2.16728 l 0.78121,0.78125 v 1.31883 l -5.8886,5.10525 v 4.23258 h 7.82905 v -1.94886 h -5.47698 v -1.5109 l 5.7794,-4.63694 v -3.32441 l -2.11688,-2.11685 h -4.06572 z"
       style="fill:#000000;fill-opacity:1;stroke:#000000;stroke-width:0.19007632px;stroke-linecap:butt;stroke-linejoin:miter;stroke-opacity:1"
       sodipodi:nodetypes="ccccccccccccccccccc" />
    <path
       inkscape:connector-curvature="0"
       id="path1297"
       d="m 172.45651,187.39044 v 2.16212 l 2.03144,2.03143 h 4.35989 l 1.62157,-1.62158 v -4.20318 l -1.06026,-1.06027 1.10183,-1.10185 v -3.67599 l -1.91262,-1.91264 h -4.38364 l -1.53842,1.53843 v 2.39378 h 1.96609 v -1.25926 l 0.64151,-0.64151 h 2.51851 l 0.68903,0.68902 v 1.59189 l -0.7603,1.39508 h -2.87491 v 2.13016 h 2.94618 l 0.72467,0.72467 v 2.174 l -0.76623,0.76624 h -2.50071 l -0.75139,-0.7514 v -1.34538 z"
       style="fill:#000000;fill-opacity:1;stroke:#000000;stroke-width:0.19007632px;stroke-linecap:butt;stroke-linejoin:miter;stroke-opacity:1"
       sodipodi:nodetypes="cccccccccccccccccccccccccccccc" />
    <path
       inkscape:connector-curvature="0"
       style="fill:#000000;fill-opacity:1;stroke:#000000;stroke-width:0.19007632px;stroke-linecap:butt;stroke-linejoin:miter;stroke-opacity:1"
       d="m 188.25682,178.27902 -5.6782,7.89616 0.87384,1.84795 h 4.83846 v 3.52632 h 2.04949 v -3.49273 h 1.98231 v -1.88154 h -2.21795 v 0 h -2.08256 v 0 l -3.12539,0.0336 3.12539,-4.53616 v 2.89802 h 2.08256 v -6.29161 z"
       id="path1299"
       sodipodi:nodetypes="ccccccccccccccccccc" />
    <path
       sodipodi:nodetypes="ccccccccccccccccccccccccc"
       inkscape:connector-curvature="0"
       id="path1301"
       d="m 194.40613,187.09705 v 2.65448 l 1.81446,1.81446 h 4.46892 l 1.54569,-1.54564 v -5.69326 l -1.46166,-1.46166 h -3.61212 l -0.57962,0.57963 v -3.1501 h 4.64534 v -1.98247 h -6.1826 l -0.78962,0.78962 v 6.06499 h 3.34333 l 0.8904,-0.89041 h 0.68882 l 0.94924,0.94922 v 3.45038 l -0.89461,0.89463 h -2.00348 l -0.71612,-0.71612 v -1.75775 z"
       style="fill:#000000;fill-opacity:1;stroke:#000000;stroke-width:0.19007632px;stroke-linecap:butt;stroke-linejoin:miter;stroke-opacity:1" />
    <path
       inkscape:connector-curvature="0"
       style="fill:#000000;fill-opacity:1;stroke:#000000;stroke-width:0.19007632px;stroke-linecap:butt;stroke-linejoin:miter;stroke-opacity:1"
       d="m 206.3136,178.3462 -1.31826,1.31879 v 9.8696 l 2.03708,2.03709 h 1.39422 v -2.09652 h -0.4377 l -0.98597,-0.98598 v -2.2308 l 0.007,-0.23048 0.84852,-0.84801 h 2.19469 l 0.98341,0.98341 v 2.43853 l -0.87334,0.87333 h -0.34726 v 2.09652 h 1.29759 l 1.69603,-1.69551 v -4.996 l -1.5849,-1.5844 h -3.7941 l -0.63806,0.63769 v -2.7125 l 1.03195,-1.03146 h 2.33836 l 0.76533,0.76533 0.0185,0.83664 h 1.78181 v -1.92443 l -1.52033,-1.52084 z"
       id="path1303"
       sodipodi:nodetypes="cccccccccccccccccccccccccccccccc" />
    <path
       inkscape:connector-curvature="0"
       id="path1305"
       d="m 215.9444,191.55774 v -1.72009 l 3.89774,-9.40829 h -2.99051 v 1.24325 h -2.28486 v -3.32651 h 6.85461 l 1.11046,1.92333 -4.16814,10.07225 v 1.21247 z"
       style="fill:#000000;fill-opacity:1;stroke:#000000;stroke-width:0.19007632px;stroke-linecap:butt;stroke-linejoin:miter;stroke-opacity:1"
       sodipodi:nodetypes="cccccccccccc" />
    <path
       inkscape:connector-curvature="0"
       style="fill:#000000;fill-opacity:1;stroke:#000000;stroke-width:0.19007632px;stroke-linecap:butt;stroke-linejoin:miter;stroke-opacity:1"
       d="m 226.36303,178.05113 -1.9136,1.91306 v 4.12666 l 0.66818,0.38499 -0.77306,0.77308 v 4.4018 l 1.88154,1.88153 h 1.48878 v -1.6893 h -0.31729 l -1.13842,-1.13843 v -2.19883 l 0.78547,-0.86455 h 2.31666 l 0.86403,0.86455 v 2.47375 l -0.86403,0.86351 h -0.25736 v 1.6893 h 1.22216 l 1.89807,-1.89807 v -3.98219 l -0.98081,-0.98082 0.59325,-0.36277 v -4.71266 l -1.54461,-1.54461 h -1.42266 v 1.7787 h 0.28061 l 0.73896,0.73897 v 2.7314 l -0.73896,0.73949 h -1.68052 l -0.97462,-0.97462 v -2.49627 l 0.6723,-0.73897 h 0.31316 v -1.7787 z"
       id="path1307"
       sodipodi:nodetypes="ccccccccccccccccccccccccccccccccccccccc" />
    <path
       inkscape:connector-curvature="0"
       style="fill:#000000;fill-opacity:1;stroke:#000000;stroke-width:0.19007632px;stroke-linecap:butt;stroke-linejoin:miter;stroke-opacity:1"
       d="m 236.9112,178.0354 -1.71357,1.71359 v 5.0485 l 1.37769,1.37769 h 3.99872 l 0.65527,-0.65526 v 3.3992 l -0.93276,0.93224 h -2.30995 l -0.76843,-0.76842 v -0.86972 -0.0863 h -1.95336 v 0.0196 1.98231 l 1.44486,1.44487 h 5.17488 l 1.34358,-1.34411 v -10.04346 l -2.14974,-2.15025 h -1.48259 v 1.99005 h 0.3483 l 1.01647,1.01648 v 2.41093 l -0.82373,0.82321 h -2.40191 l -0.82373,-0.82321 v -2.5117 l 0.0124,-0.12144 0.79428,-0.79427 h 0.48884 v -1.99057 z"
       id="path1309"
       sodipodi:nodetypes="cccccccccccccccccccccccccccccccccc" />
    <path
       style="fill:#000000;fill-opacity:1;stroke:#000000;stroke-width:0.28625983px;stroke-linecap:butt;stroke-linejoin:miter;stroke-opacity:1"
       d="m 7.8362046,178.232 -2.08721,2.08721 -0.10904,0.076 v 9.61141 l 1.52601,1.526 h 2.3368 v -1.78697 h -0.81855 l -1.11363,-1.11311 v -7.4782 l 1.21491,-1.11363 h 2.7073304 l 1.46761,1.46761 v 7.04774 l -1.18907,1.18959 h -0.87953 v 1.78697 h 2.10943 l 1.60972,-1.60972 v -9.68582 l -2.00505,-2.00504 z"
       id="path1311"
       inkscape:connector-curvature="0"
       sodipodi:nodetypes="cccccccccccccccccccccc" />
    <path
       style="fill:#000000;fill-opacity:1;stroke:none;stroke-width:0.34644839px;stroke-linecap:butt;stroke-linejoin:miter;stroke-opacity:1"
       d="m 246.19519,188.70057 v 1.10196 h 1.18933 l -0.0233,1.38284 2.03279,-1.48394 v -2.30932 h -3.19542 z"
       id="path5151"
       inkscape:connector-curvature="0"
       sodipodi:nodetypes="cccccccc" />
    <path
       style="fill:#000000;fill-opacity:1;stroke:none;stroke-width:0.28565836px;stroke-linecap:butt;stroke-linejoin:miter;stroke-opacity:1"
       d="m 280.53557,179.40584 v 0.9086 h -0.98062 l 0.0193,1.1402 -1.67611,-1.22356 v -1.90411 h 2.63472 z"
       id="path5151-2"
       inkscape:connector-curvature="0"
       sodipodi:nodetypes="cccccccc" />
    <path
       sodipodi:nodetypes="cccccccc"
       inkscape:connector-curvature="0"
       id="path5185"
       d="m 284.18381,179.40584 v 0.9086 h -0.98063 l 0.0193,1.1402 -1.6761,-1.22356 v -1.90411 h 2.63474 z"
       style="fill:#000000;fill-opacity:1;stroke:none;stroke-width:0.28565836px;stroke-linecap:butt;stroke-linejoin:miter;stroke-opacity:1" />
    <path
       sodipodi:nodetypes="cccccccc"
       inkscape:connector-curvature="0"
       id="path5205"
       d="m 293.70714,179.40584 v 0.9086 h 0.98062 l -0.0193,1.1402 1.67611,-1.22356 v -1.90411 h -2.63475 z"
       style="fill:#000000;fill-opacity:1;stroke:none;stroke-width:0.28565836px;stroke-linecap:butt;stroke-linejoin:miter;stroke-opacity:1" />
    <path
       style="fill:#000000;fill-opacity:1;stroke:none;stroke-width:0.28565836px;stroke-linecap:butt;stroke-linejoin:miter;stroke-opacity:1"
       d="m 290.0589,179.40584 v 0.9086 h 0.98063 l -0.0193,1.1402 1.6761,-1.22356 v -1.90411 h -2.63472 z"
       id="path5207"
       inkscape:connector-curvature="0"
       sodipodi:nodetypes="cccccccc" />
    <path
       style="fill:#000000;fill-opacity:1;stroke-width:1.48241115"
       d="m 300.92857,181.51378 -0.58933,0.58936 v 1.38671 l 0.53734,0.53736 h 1.41594 l 0.6327,-0.63269 v -1.25671 l -0.69768,-0.69769 h -1.22875 z"
       id="path5209"
       inkscape:connector-curvature="0"
       sodipodi:nodetypes="cccccccccc" />
    <path
       sodipodi:nodetypes="cccccccccc"
       inkscape:connector-curvature="0"
       id="path5228"
       d="m 300.92857,185.44264 -0.58933,0.58936 v 1.38671 l 0.53734,0.53736 h 1.41594 l 0.6327,-0.63269 v -1.25671 l -0.69768,-0.69769 h -1.22875 z"
       style="fill:#000000;fill-opacity:1;stroke-width:1.48241115" />
    <path
       sodipodi:nodetypes="cccccccccc"
       inkscape:connector-curvature="0"
       id="path5230"
       d="m 307.75733,181.51378 -0.58936,0.58936 v 1.38671 l 0.53735,0.53736 h 1.41594 l 0.6327,-0.63269 v -1.25671 l -0.69768,-0.69769 h -1.22875 z"
       style="fill:#000000;fill-opacity:1;stroke-width:1.48241115" />
    <path
       sodipodi:nodetypes="cccccccc"
       inkscape:connector-curvature="0"
       id="path5205-1"
       d="m 307.11654,186.52149 v 0.9086 h 0.98062 l -0.0193,1.1402 1.67611,-1.22356 v -1.90411 h -2.63475 z"
       style="fill:#000000;fill-opacity:1;stroke:none;stroke-width:0.28565836px;stroke-linecap:butt;stroke-linejoin:miter;stroke-opacity:1" />
    <path
       sodipodi:nodetypes="cccccc"
       inkscape:connector-curvature="0"
       id="path5247"
       d="m 257.04959,191.63295 h 1.87045 l 7.40254,-13.75483 h -2.11363 l -7.37182,13.75319 z"
       style="fill:#000000;fill-opacity:1;stroke:none;stroke-width:0.25799528px;stroke-linecap:butt;stroke-linejoin:miter;stroke-opacity:1" />
    <path
       style="fill:#000000;fill-opacity:1;stroke:none;stroke-width:0.25799528px;stroke-linecap:butt;stroke-linejoin:miter;stroke-opacity:1"
       d="m 278.54553,191.63295 h -1.87047 l -7.40251,-13.75483 h 2.11362 l 7.37182,13.75319 z"
       id="path5255"
       inkscape:connector-curvature="0"
       sodipodi:nodetypes="cccccc" />
    <path
       sodipodi:nodetypes="cccccccccc"
       inkscape:connector-curvature="0"
       id="path5228-1"
       d="m 252.29858,187.66251 -0.66387,0.66387 v 1.56203 l 0.60529,0.6053 h 1.59496 l 0.71268,-0.71268 v -1.4156 l -0.78589,-0.7859 h -1.38412 z"
       style="fill:#000000;fill-opacity:1;stroke-width:1.66983283" />
    <path
       style="fill:#000000;fill-opacity:1;stroke:none;stroke-width:0.26458332px;stroke-linecap:butt;stroke-linejoin:miter;stroke-opacity:1"
       d="m 312.9066,189.70365 v 1.53816 h 8.14996 v -1.53546 z"
       id="path5272"
       inkscape:connector-curvature="0"
       sodipodi:nodetypes="cccc" />
    <path
       style="fill:#000000;fill-opacity:1;stroke:none;stroke-width:0.21745743px;stroke-linecap:butt;stroke-linejoin:miter;stroke-opacity:1"
       d="m 326.00703,180.115 c -0.68846,-0.0195 -1.39048,0.2937 -1.86626,0.96056 -0.47314,0.56771 -0.70819,1.41456 -0.75681,2.235 0.0488,0.62253 0.2301,1.22116 0.41477,1.79399 0.47613,1.10493 1.22158,1.95297 1.92387,2.80656 0.68595,0.75245 1.39485,1.46829 2.10284,2.18481 1.11661,-1.12437 2.27329,-2.20154 3.23121,-3.56403 0.4811,-0.65545 0.91756,-1.40474 1.0815,-2.30427 0.16801,-0.53938 0.22081,-1.1427 0.0554,-1.69538 -0.18926,-0.99197 -0.7781,-1.82128 -1.50013,-2.19711 -0.68509,-0.32255 -1.55597,-0.24599 -2.10818,0.26459 -0.29575,0.18142 -0.59956,0.66756 -0.75914,0.86566 -0.33698,-0.6239 -0.86672,-1.06147 -1.41913,-1.28736 -0.13069,-0.0421 -0.26533,-0.0631 -0.39995,-0.063 z"
       id="path979"
       inkscape:connector-curvature="0"
       sodipodi:nodetypes="ccccccccccccccc" />
    <path
       sodipodi:nodetypes="cccccccccc"
       inkscape:connector-curvature="0"
       id="path5228-1-5"
       d="m 338.21037,189.56914 -0.45073,0.45073 v 1.06053 l 0.41095,0.41096 h 1.08289 l 0.48388,-0.48386 v -0.96112 l -0.53358,-0.53358 h -0.93974 z"
       style="fill:#000000;fill-opacity:1;stroke-width:1.13372266" />
    <path
       style="fill:#000000;fill-opacity:1;stroke:#000000;stroke-width:0.26458332px;stroke-linecap:butt;stroke-linejoin:miter;stroke-opacity:1"
       d="m 338.38344,188.30982 h 0.76306 l 0.43214,-0.49896 -0.0167,-2.31916 2.63836,-2.70518 v -2.98837 l -2.20771,-1.27463 h -2.71777 l -1.93662,1.93661 v 0.70818 l 0.44127,0.25477 h 0.59764 l 1.37944,-1.37943 h 1.92786 l 1.33596,0.77132 v 1.58176 l -3.05396,3.05396 0.0228,2.33392 z"
       id="path1019"
       inkscape:connector-curvature="0"
       sodipodi:nodetypes="ccccccccccccccccccc" />
    <path
       sodipodi:nodetypes="cccccccccc"
       inkscape:connector-curvature="0"
       id="path5228-1-5-6"
       d="m 346.16554,189.80456 -0.45073,0.45073 v 1.06053 l 0.41095,0.41096 h 1.08289 l 0.48388,-0.48386 v -0.96112 l -0.53358,-0.53358 h -0.93974 z"
       style="fill:#000000;fill-opacity:1;stroke-width:1.13372266" />
    <path
       sodipodi:nodetypes="ccccccccccc"
       inkscape:connector-curvature="0"
       id="path1036"
       d="m 346.2846,188.30982 h 0.76306 l 0.43214,-0.49896 -0.0167,-2.31916 0.0398,-6.52097 -0.25019,-0.25365 -1.14235,-0.005 -0.3071,0.28246 0.0643,6.45575 0.0228,2.33392 z"
       style="fill:#000000;fill-opacity:1;stroke:#000000;stroke-width:0.26458332px;stroke-linecap:butt;stroke-linejoin:miter;stroke-opacity:1" />
    <path
       style="fill:#000000;fill-opacity:1;stroke-width:1.13372266"
       d="m 338.21037,189.56914 -0.45073,0.45073 v 1.06053 l 0.41095,0.41096 h 1.08289 l 0.48388,-0.48386 v -0.96112 l -0.53358,-0.53358 h -0.93974 z"
       id="path1038"
       inkscape:connector-curvature="0"
       sodipodi:nodetypes="cccccccccc" />
    <path
       sodipodi:nodetypes="ccccccccccccccccccc"
       inkscape:connector-curvature="0"
       id="path1040"
       d="m 338.38344,188.30982 h 0.76306 l 0.43214,-0.49896 -0.0167,-2.31916 2.63836,-2.70518 v -2.98837 l -2.20771,-1.27463 h -2.71777 l -1.93662,1.93661 v 0.70818 l 0.44127,0.25477 h 0.59764 l 1.37944,-1.37943 h 1.92786 l 1.33596,0.77132 v 1.58176 l -3.05396,3.05396 0.0228,2.33392 z"
       style="fill:#000000;fill-opacity:1;stroke:#000000;stroke-width:0.26458332px;stroke-linecap:butt;stroke-linejoin:miter;stroke-opacity:1" />
    <path
       inkscape:connector-curvature="0"
       id="path937"
       d="m -143.26568,194.59479 -1.79524,1.79524 v 11.39103 h 0.11834 1.8495 v -3.33519 h 1.39268 1.66861 v -2.05569 h -1.66861 -1.30535 -0.0827 v -5.35058 l 0.72089,-0.72037 h 3.30729 l 0.92087,0.92139 v 5.14956 h -1.89239 v 2.05569 h 2.12907 v 3.42976 h 1.44074 v -11.34401 l -1.93683,-1.93683 z"
       style="fill:#000000;fill-opacity:1;stroke:#000000;stroke-width:0.26458332px;stroke-linecap:butt;stroke-linejoin:miter;stroke-opacity:1"
       sodipodi:nodetypes="ccccccccccccccccccccccccc" />
    <path
       sodipodi:nodetypes="cccccccccccccccccccccccccccccccc"
       inkscape:connector-curvature="0"
       id="path939"
       d="m -127.13644,194.40488 -6.49056,0.0176 v 13.22946 h 6.80372 l 1.68879,-1.6893 v -1.25677 h -1.86604 v 0.26458 l -0.74414,0.74414 h -4.08709 v -3.54323 -0.12403 h 3.95118 l 0.88005,0.87954 v 1.779 h 1.86604 v -2.34589 l -1.29346,-1.29346 1.22266,-1.22215 v -2.34611 h -1.79524 v 1.63711 l -0.74414,0.74414 h -4.08709 v -3.42512 -0.12402 h 3.95118 l 0.88005,0.88005 v 0.28784 h 1.79524 v -1.16221 z"
       style="fill:#000000;fill-opacity:1;stroke:#000000;stroke-width:0.26458332px;stroke-linecap:butt;stroke-linejoin:miter;stroke-opacity:1" />
    <path
       style="fill:#000000;fill-opacity:1;stroke:#000000;stroke-width:0.26458332px;stroke-linecap:butt;stroke-linejoin:miter;stroke-opacity:1"
       d="m -122.91422,196.06705 v 9.78874 l 1.68714,1.68714 h 5.29528 l 1.41152,-1.41152 v -2.71445 h -1.91265 v 1.30294 l -0.98555,0.98555 h -2.62259 l -1.09413,-1.09413 v -7.17452 l 1.28206,-1.28206 h 2.31772 l 1.20898,1.20898 v 1.10875 h 1.79781 v -2.50565 l -1.97112,-1.97112 h -4.51017 l -1.88759,1.8876 z"
       id="path941"
       inkscape:connector-curvature="0"
       sodipodi:nodetypes="cccccccccccccccccccccc" />
    <path
       sodipodi:nodetypes="ccccccccccccccccc"
       inkscape:connector-curvature="0"
       id="path945"
       d="m -105.8106,193.87627 -6.62595,0.0589 v 13.76196 h 2.00763 v -1.88929 -9.58082 -0.2191 h 3.71501 l 1.09244,1.09295 V 204.78 l -1.02732,1.02785 h -3.82317 v 1.88929 h 5.12231 l 1.70067,-1.70119 v -9.95805 z"
       style="fill:#000000;fill-opacity:1;stroke:none;stroke-width:0.26458332px;stroke-linecap:butt;stroke-linejoin:miter;stroke-opacity:1" />
    <path
       style="fill:#000000;fill-opacity:1;stroke:#000000;stroke-width:0.26458332px;stroke-linecap:butt;stroke-linejoin:miter;stroke-opacity:1"
       d="m -101.21557,194.19516 v 13.32366 h 8.315478 v -1.96075 h -6.37835 v -3.96875 h 5.315289 v -1.86626 h -5.338911 v -3.54352 h 6.401972 c 0,0 0.0473,-2.008 0,-2.008 -0.0472,0 -8.362728,0 -8.362728,0 z"
       id="path947"
       inkscape:connector-curvature="0" />
    <path
       style="fill:#000000;fill-opacity:1;stroke:#000000;stroke-width:0.26458332px;stroke-linecap:butt;stroke-linejoin:miter;stroke-opacity:1"
       d="m -90.561374,207.55105 h 1.98437 v -5.631 h 4.181574 v -1.93713 h -4.323303 v -3.77976 h 5.669842 v -2.03162 h -7.772341 v 13.3795 z"
       id="path949"
       inkscape:connector-curvature="0"
       sodipodi:nodetypes="cccccccccccc" />
    <path
       style="fill:#000000;fill-opacity:1;stroke:#000000;stroke-width:0.26458332px;stroke-linecap:butt;stroke-linejoin:miter;stroke-opacity:1"
       d="m -81.088343,196.19911 v 9.26496 l 2.137931,2.13793 h 5.01999 l 1.801299,-1.80129 v -5.11313 h -3.667559 v 1.96075 h 1.819011 v 2.01254 l -0.980372,0.98038 h -3.224609 l -0.891791,-0.89179 v -7.62903 l 0.82387,-0.82387 h 3.37521 l 0.71904,0.71904 v 1.07339 h 1.8323 v -1.98437 l -1.90169,-1.9017 h -5.3271 l -1.541441,1.56506 z"
       id="path951"
       inkscape:connector-curvature="0"
       sodipodi:nodetypes="cccccccccccccccccccccccc" />
    <path
       style="fill:#000000;fill-opacity:1;stroke:#000000;stroke-width:0.26458332px;stroke-linecap:butt;stroke-linejoin:miter;stroke-opacity:1"
       d="m -69.760994,194.2954 v 13.26325 h 2.004521 v -5.98015 h 5.378802 v 5.98015 h 1.870879 v -13.33007 h -2.07133 v 5.07812 h -5.178351 v -5.11153 h -2.01621 z"
       id="path953"
       inkscape:connector-curvature="0" />
    <path
       style="fill:#000000;fill-opacity:1;stroke:#000000;stroke-width:0.26458332px;stroke-linecap:butt;stroke-linejoin:miter;stroke-opacity:1"
       d="m -57.842803,194.21473 v 13.30004 h 2.10249 v -13.27641 z"
       id="path955"
       inkscape:connector-curvature="0"
       sodipodi:nodetypes="ccccc" />
    <path
       style="fill:#000000;fill-opacity:1;stroke:#000000;stroke-width:0.26458332px;stroke-linecap:butt;stroke-linejoin:miter;stroke-opacity:1"
       d="m -53.992173,205.71534 1.85444,1.85444 h 4.831012 l 1.801288,-1.80129 v -11.46331 h -2.0139 v 10.44159 l -0.90951,0.90951 h -2.799379 l -0.879981,-0.87998 v -1.58868 -0.0561 l -1.885449,0.004 z"
       id="path957"
       inkscape:connector-curvature="0"
       sodipodi:nodetypes="cccccccccccccc" />
    <path
       style="fill:#000000;fill-opacity:1;stroke:#000000;stroke-width:0.26458332px;stroke-linecap:butt;stroke-linejoin:miter;stroke-opacity:1"
       d="m -42.743395,194.22523 v 13.32969 h 1.85754 v -5.01054 l 2.19935,-2.19935 2.6293,2.62929 v 4.59714 h 2.06705 v -5.88698 l -3.10058,-3.10059 4.22506,-4.22506 h -2.96002 l -5.13457,5.13457 v -5.26686 z"
       id="path959"
       inkscape:connector-curvature="0" />
    <path
       style="fill:#000000;fill-opacity:1;stroke:#000000;stroke-width:0.26458332px;stroke-linecap:butt;stroke-linejoin:miter;stroke-opacity:1"
       d="m -31.377755,194.23263 v 13.2833 h 6.625044 v -2.22168 h -4.496924 v -11.07331 z"
       id="path961"
       inkscape:connector-curvature="0"
       sodipodi:nodetypes="ccccccc" />
    <path
       style="fill:#000000;fill-opacity:1;stroke:#000000;stroke-width:0.26458332px;stroke-linecap:butt;stroke-linejoin:miter;stroke-opacity:1"
       d="m -21.508815,207.46511 v -13.35346 h 1.96443 l 4.47843,4.47844 4.58368,-4.58367 h 2.1164396 v 13.48207 h -2.1281296 v -10.61728 l -3.57808,3.57807 v 7.08598 h -2.0112 v -6.92228 l -3.54299,-3.54299 v 10.37173 z"
       id="path963"
       inkscape:connector-curvature="0" />
    <path
       style="fill:#000000;fill-opacity:1;stroke:#000000;stroke-width:0.28625983px;stroke-linecap:butt;stroke-linejoin:miter;stroke-opacity:1"
       d="m -5.5547854,207.41816 v -13.22164 h 2.21852 l 4.90751,9.05672 v -9.11038 h 1.94483 v 13.29318 h -2.32586 l -5.04393,-9.26766 v 9.30345 h -1.71896 z"
       id="path965"
       inkscape:connector-curvature="0"
       sodipodi:nodetypes="cccccccccccc" />
    <path
       sodipodi:nodetypes="cccccccccccccccccccccc"
       inkscape:connector-curvature="0"
       id="path967"
       d="m 7.8362046,194.20135 -2.08721,2.08721 -0.10904,0.076 v 9.61141 l 1.52601,1.526 h 2.3368 V 205.715 h -0.81855 l -1.11363,-1.11311 v -7.4782 l 1.21491,-1.11363 h 2.7073304 l 1.46761,1.46761 v 7.04774 l -1.18907,1.18959 H 9.5027646 v 1.78697 h 3.4985004 l 1.60972,-1.60972 v -9.68582 l -2.00505,-2.00504 z"
       style="fill:#000000;fill-opacity:1;stroke:#000000;stroke-width:0.28625983px;stroke-linecap:butt;stroke-linejoin:miter;stroke-opacity:1" />
    <path
       inkscape:connector-curvature="0"
       id="path969"
       d="m 17.236665,194.0365 v 13.38471 l 1.94768,0.0253 v -4.35167 h 4.68085 l 2.04949,-2.04948 v -3.03804 h -2.12493 v 2.25359 l -0.82269,0.82217 -3.75688,-0.0377 v -5.03536 h 3.49126 l 1.08831,1.08779 v 0.90951 h 2.12493 v -1.6428 l -2.32751,-2.32802 z"
       style="fill:#000000;fill-opacity:1;stroke:#000000;stroke-width:0.28625983px;stroke-linecap:butt;stroke-linejoin:miter;stroke-opacity:1"
       sodipodi:nodetypes="ccccccccccccccccccc" />
    <path
       inkscape:connector-curvature="0"
       id="path971"
       d="m 28.976515,194.60574 -1.67018,1.53686 v 9.64023 l 1.78438,1.78388 h 9.29815 v -1.70791 h -1.74615 l -0.49299,0.49351 v -9.88053 l -1.86656,-1.86604 h -3.34243 v 1.64744 h 2.25154 l 1.35651,1.35703 v 7.24245 l -0.91674,0.91777 h -3.60547 l -0.94878,-0.94878 v -7.54011 l 1.13792,-1.02836 h 0.72502 v -1.64744 h -1.73684 z"
       style="fill:#000000;fill-opacity:1;stroke:#000000;stroke-width:0.28625983px;stroke-linecap:butt;stroke-linejoin:miter;stroke-opacity:1"
       sodipodi:nodetypes="cccccccccccccccccccccccc" />
    <path
       sodipodi:nodetypes="ccccccccccccccccccccccccc"
       inkscape:connector-curvature="0"
       id="path973"
       d="m 39.983075,194.11246 v 13.42567 h 1.97352 v -4.79777 H 44.7974 v -2.11615 h -2.851135 v -4.36562 l -0.004,-0.0269 h 3.62717 l 0.88573,0.88573 v 2.71973 l -0.78703,0.78703 h -0.8847 v 2.11615 h 0.84181 l 1.03714,1.03766 v 3.70895 h 1.99885 v -4.54404 l -1.24592,-1.24643 1.05678,-1.05627 v -4.8705 l -1.65726,-1.65727 z"
       style="fill:#000000;fill-opacity:1;stroke:#000000;stroke-width:0.28625983px;stroke-linecap:butt;stroke-linejoin:miter;stroke-opacity:1" />
    <path
       sodipodi:nodetypes="ccccccccccccccccccccccccccccc"
       style="fill:#000000;fill-opacity:1;stroke:#000000;stroke-width:0.28625983px;stroke-linecap:butt;stroke-linejoin:miter;stroke-opacity:1"
       d="m 50.508385,203.9636 v 1.92295 l 1.66995,1.66993 h 5.33871 l 1.44222,-1.4422 v -4.4259 l -1.80909,-1.80909 h -3.90916 l -1.03106,-1.03106 v -1.71421 l 0.86975,-0.86976 h 3.22285 l 0.6879,0.6879 v 1.06743 h 1.96881 v -1.77115 l -1.97355,-1.97355 h -4.78209 l -1.72053,1.72053 v 3.6435 l 1.99886,1.99886 h 3.64349 l 0.92352,0.92352 v 2.23727 l -1.11961,1.11962 h -2.56183 l -0.93934,-0.93934 v -1.01525 z"
       id="path975"
       inkscape:connector-curvature="0" />
    <path
       style="fill:#000000;fill-opacity:1;stroke:#000000;stroke-width:0.28625983px;stroke-linecap:butt;stroke-linejoin:miter;stroke-opacity:1"
       d="m 63.538935,207.4954 v -11.53577 h -3.41577 v -1.97355 h 8.7545 v 1.99886 h -3.51698 v 11.53575 z"
       id="path977"
       inkscape:connector-curvature="0"
       sodipodi:nodetypes="ccccccccc" />
    <path
       style="fill:#000000;fill-opacity:1;stroke:#000000;stroke-width:0.28625983px;stroke-linecap:butt;stroke-linejoin:miter;stroke-opacity:1"
       d="m 70.168075,194.11259 v 11.43553 l 1.91029,1.91031 h 5.83213 l 1.53709,-1.5371 v -11.75814 h -2.06844 v 10.37285 l -1.12594,1.12594 h -3.0995 l -1.14492,-1.14491 v -10.4551 h -1.84071 z"
       id="path980"
       inkscape:connector-curvature="0"
       sodipodi:nodetypes="cccccccccccccc" />
    <path
       sodipodi:nodetypes="cccccccc"
       style="fill:#000000;fill-opacity:1;stroke:#000000;stroke-width:0.28625983px;stroke-linecap:butt;stroke-linejoin:miter;stroke-opacity:1"
       d="m 80.719015,194.2391 4.40255,13.28159 h 2.37839 l 3.44108,-13.3069 h -1.99886 l -2.73471,10.40654 -3.33777,-10.40654 z"
       id="path982"
       inkscape:connector-curvature="0" />
    <path
       style="fill:#000000;fill-opacity:1;stroke:#000000;stroke-width:0.28625983px;stroke-linecap:butt;stroke-linejoin:miter;stroke-opacity:1"
       d="m 91.472385,194.21379 4.30134,13.2482 h 2.27719 l 2.707305,-9.6047 3.31457,9.6047 h 2.22657 l 3.52826,-13.33465 h -2.06073 l -2.72007,10.31847 -3.35243,-10.30793 h -2.125365 l -2.70731,10.41437 -3.41578,-10.41437 h -1.99885 z"
       id="path984"
       inkscape:connector-curvature="0"
       sodipodi:nodetypes="ccccccccccccccc" />
    <path
       style="fill:#000000;fill-opacity:1;stroke:#000000;stroke-width:0.28625983px;stroke-linecap:butt;stroke-linejoin:miter;stroke-opacity:1"
       d="m 110.50567,194.25509 3.6809,6.3755 -3.95297,6.84675 h 2.56215 l 2.91643,-5.0514 2.91912,5.05606 h 2.6449 l -4.02383,-6.96947 3.62007,-6.27013 h -2.63775 l -2.69514,4.66812 -2.70836,-4.69102 z"
       id="path986"
       inkscape:connector-curvature="0" />
    <path
       style="fill:#000000;fill-opacity:1;stroke:#000000;stroke-width:0.28625983px;stroke-linecap:butt;stroke-linejoin:miter;stroke-opacity:1"
       d="m 122.44206,194.12509 v 6.50262 l 2.14434,2.14435 h 4.75046 v 1.90399 l -0.90453,0.90454 h -5.25651 v 1.86602 h 6.54058 l 1.82806,-1.82806 v -11.60732 h -2.22025 v 6.78095 h -3.8459 l -1.02473,-1.02473 v -5.62971 z"
       id="path988"
       inkscape:connector-curvature="0"
       sodipodi:nodetypes="ccccccccccccccccc" />
    <path
       style="fill:#000000;fill-opacity:1;stroke:#000000;stroke-width:0.28625983px;stroke-linecap:butt;stroke-linejoin:miter;stroke-opacity:1"
       d="m 133.77739,194.22987 v 1.87235 h 5.99657 l -6.75564,9.48826 1.08273,1.87538 h 8.0513 v -1.95129 h -6.50261 l 6.90745,-9.58946 -1.02674,-1.77834 h -7.74827 z"
       id="path990"
       inkscape:connector-curvature="0"
       sodipodi:nodetypes="cccccccccccc" />
    <path
       sodipodi:nodetypes="cccccccccccccccccccccccccccccc"
       id="path992"
       d="m 147.48516,194.39255 -2.09084,2.06137 v 8.83489 l 2.23345,2.23345 h 1.33895 v -2.25722 h -0.22222 l -1.11673,-1.11673 v -0.009 l 3.88453,-3.91684 v 4.1277 l -0.91469,0.91467 h -1.62971 v 2.25723 h 2.65137 l 2.1027,-2.10272 v -8.91808 l -2.10838,-2.10892 h -2.79922 v 2.03192 h 1.71813 l 0.9798,0.97979 v 0.0403 l -3.88453,3.98764 v -4.00417 l -0.003,-0.21653 0.78703,-0.78703 h 0.40257 v -2.03192 z"
       style="fill:#000000;fill-opacity:1;stroke:#000000;stroke-width:0.19007632px;stroke-linecap:butt;stroke-linejoin:miter;stroke-opacity:1"
       inkscape:connector-curvature="0" />
    <path
       style="fill:#000000;fill-opacity:1;stroke:#000000;stroke-width:0.19007632px;stroke-linecap:butt;stroke-linejoin:miter;stroke-opacity:1"
       d="m 156.45927,194.24825 -1.59605,1.59604 h 1.19283 0.71688 v 11.67484 h 2.31847 v -13.27292 z"
       id="path994"
       inkscape:connector-curvature="0"
       sodipodi:nodetypes="cccccccc" />
    <path
       sodipodi:nodetypes="ccccccccccccccccccc"
       style="fill:#000000;fill-opacity:1;stroke:#000000;stroke-width:0.19007632px;stroke-linecap:butt;stroke-linejoin:miter;stroke-opacity:1"
       d="m 161.91389,195.69519 v 2.48649 h 2.18409 v -1.37765 L 164.854,196.048 h 2.16728 l 0.78121,0.78125 v 1.31883 l -5.8886,5.10525 v 4.23258 h 7.82905 v -1.94886 h -5.47698 v -1.5109 l 5.7794,-4.63694 v -3.32441 l -2.11688,-2.11685 h -4.06572 z"
       id="path996"
       inkscape:connector-curvature="0" />
    <path
       sodipodi:nodetypes="cccccccccccccccccccccccccccccc"
       style="fill:#000000;fill-opacity:1;stroke:#000000;stroke-width:0.19007632px;stroke-linecap:butt;stroke-linejoin:miter;stroke-opacity:1"
       d="m 172.45651,203.49343 v 2.16212 l 2.03144,2.03143 h 4.35989 l 1.62157,-1.62158 v -4.20318 l -1.06026,-1.06027 1.10183,-1.10185 v -3.67599 l -1.91262,-1.91264 h -4.38364 l -1.53842,1.53843 v 2.39378 h 1.96609 v -1.25926 l 0.64151,-0.64151 h 2.51851 l 0.68903,0.68902 v 1.59189 l -0.7603,1.39508 h -2.87491 v 2.13016 h 2.94618 l 0.72467,0.72467 v 2.174 l -0.76623,0.76624 h -2.50071 l -0.75139,-0.7514 v -1.34538 z"
       id="path998"
       inkscape:connector-curvature="0" />
    <path
       sodipodi:nodetypes="ccccccccccccccccccc"
       id="path1000"
       d="m 188.25682,194.35908 -5.6782,7.89616 0.87384,1.84795 h 4.83846 v 3.52632 h 2.04949 v -3.49273 h 1.98231 v -1.88154 h -2.21795 v 0 h -2.08256 v 0 l -3.12539,0.0336 3.12539,-4.53616 v 4.50256 h 2.08256 v -7.89615 z"
       style="fill:#000000;fill-opacity:1;stroke:#000000;stroke-width:0.19007632px;stroke-linecap:butt;stroke-linejoin:miter;stroke-opacity:1"
       inkscape:connector-curvature="0" />
    <path
       style="fill:#000000;fill-opacity:1;stroke:#000000;stroke-width:0.19007632px;stroke-linecap:butt;stroke-linejoin:miter;stroke-opacity:1"
       d="m 194.40613,203.06654 v 2.65448 l 1.81446,1.81446 h 4.46892 l 1.54569,-1.54564 v -5.69326 l -1.46166,-1.46166 h -3.61212 l -0.57962,0.57963 v -3.1501 h 4.64534 v -1.98247 h -6.1826 l -0.78962,0.78962 v 6.06499 h 3.34333 l 0.8904,-0.89041 h 0.68882 l 0.94924,0.94922 v 3.45038 l -0.89461,0.89463 h -2.00348 l -0.71612,-0.71612 v -1.75775 z"
       id="path1002"
       inkscape:connector-curvature="0"
       sodipodi:nodetypes="ccccccccccccccccccccccccc" />
    <path
       sodipodi:nodetypes="cccccccccccccccccccccccccccccccc"
       id="path1004"
       d="m 206.3136,194.31569 -1.31826,1.31879 v 9.8696 l 2.03708,2.03709 h 2.78357 v -2.09652 h -1.82705 l -0.98597,-0.98598 v -2.2308 l 0.007,-0.23048 0.84852,-0.84801 h 2.19469 l 0.98341,0.98341 v 2.43853 l -0.87334,0.87333 h -0.34726 v 2.09652 h 1.29759 l 1.69603,-1.69551 v -4.996 l -1.5849,-1.5844 h -3.7941 l -0.63806,0.63769 v -2.7125 l 1.03195,-1.03146 h 2.33836 l 0.76533,0.76533 0.0185,0.83664 h 1.78181 v -1.92443 l -1.52033,-1.52084 z"
       style="fill:#000000;fill-opacity:1;stroke:#000000;stroke-width:0.19007632px;stroke-linecap:butt;stroke-linejoin:miter;stroke-opacity:1"
       inkscape:connector-curvature="0" />
    <path
       sodipodi:nodetypes="cccccccccccc"
       style="fill:#000000;fill-opacity:1;stroke:#000000;stroke-width:0.19007632px;stroke-linecap:butt;stroke-linejoin:miter;stroke-opacity:1"
       d="m 215.9444,207.57448 v -1.72009 l 3.89774,-9.40829 h -2.99051 v 1.24325 h -2.28486 v -3.32651 h 6.85461 l 1.11046,1.92333 -4.16814,10.07225 v 1.21247 z"
       id="path1006"
       inkscape:connector-curvature="0" />
    <path
       sodipodi:nodetypes="ccccccccccccccccccccccccccccccccccccccc"
       id="path1008"
       d="m 226.36303,194.16237 -1.9136,1.91306 v 4.12666 l 0.66818,0.38499 -0.77306,0.77308 v 4.4018 l 1.88154,1.88153 h 2.87784 v -1.6893 h -1.70635 l -1.13842,-1.13843 v -2.19883 l 0.78547,-0.86455 h 2.31666 l 0.86403,0.86455 v 2.47375 l -0.86403,0.86351 h -0.25736 v 1.6893 h 1.22216 l 1.89807,-1.89807 v -3.98219 l -0.98081,-0.98082 0.59325,-0.36277 v -4.71266 l -1.54461,-1.54461 h -2.81173 v 1.7787 h 1.66968 l 0.73896,0.73897 v 2.7314 l -0.73896,0.73949 h -1.68052 l -0.97462,-0.97462 v -2.49627 l 0.6723,-0.73897 h 0.31316 v -1.7787 z"
       style="fill:#000000;fill-opacity:1;stroke:#000000;stroke-width:0.19007632px;stroke-linecap:butt;stroke-linejoin:miter;stroke-opacity:1"
       inkscape:connector-curvature="0" />
    <path
       sodipodi:nodetypes="cccccccccccccccccccccccccccccccccc"
       id="path1010"
       d="m 236.9112,194.01063 -1.71357,1.71359 v 5.0485 l 1.37769,1.37769 h 3.99872 l 0.65527,-0.65526 v 3.3992 l -0.93276,0.93224 h -2.30995 l -0.76843,-0.76842 v -0.86972 -0.0863 h -1.95336 v 0.0196 1.98231 l 1.44486,1.44487 h 5.17488 l 1.34358,-1.34411 v -10.04346 l -2.14974,-2.15025 h -2.87167 v 1.99005 h 1.73738 l 1.01647,1.01648 v 2.41093 l -0.82373,0.82321 h -2.40191 l -0.82373,-0.82321 v -2.5117 l 0.0124,-0.12144 0.79428,-0.79427 h 0.48884 v -1.99057 z"
       style="fill:#000000;fill-opacity:1;stroke:#000000;stroke-width:0.19007632px;stroke-linecap:butt;stroke-linejoin:miter;stroke-opacity:1"
       inkscape:connector-curvature="0" />
  </g>
</svg>
