<?xml version="1.0" encoding="UTF-8" standalone="no"?>
<!-- Created with Inkscape (http://www.inkscape.org/) -->

<svg
   xmlns:dc="http://purl.org/dc/elements/1.1/"
   xmlns:cc="http://creativecommons.org/ns#"
   xmlns:rdf="http://www.w3.org/1999/02/22-rdf-syntax-ns#"
   xmlns:svg="http://www.w3.org/2000/svg"
   xmlns="http://www.w3.org/2000/svg"
   xmlns:sodipodi="http://sodipodi.sourceforge.net/DTD/sodipodi-0.dtd"
   xmlns:inkscape="http://www.inkscape.org/namespaces/inkscape"
   width="21.067034mm"
   height="35.048496mm"
   viewBox="0 0 21.067034 35.048496"
   version="1.1"
   id="svg8"
   inkscape:version="0.92.3 (2405546, 2018-03-11)"
   sodipodi:docname="logo_ENL.svg"
   inkscape:export-filename="D:\Gits\IngressThings\PNG\logo_ENL_1000width.png"
   inkscape:export-xdpi="1205.6801"
   inkscape:export-ydpi="1205.6801">
  <defs
     id="defs2" />
  <sodipodi:namedview
     id="base"
     pagecolor="#ffffff"
     bordercolor="#666666"
     borderopacity="1.0"
     inkscape:pageopacity="0.0"
     inkscape:pageshadow="2"
     inkscape:zoom="3.959798"
     inkscape:cx="-47.259709"
     inkscape:cy="56.651265"
     inkscape:document-units="mm"
     inkscape:current-layer="layer1"
     showgrid="false"
     fit-margin-top="0"
     fit-margin-left="0"
     fit-margin-right="0"
     fit-margin-bottom="0"
     inkscape:window-width="1920"
     inkscape:window-height="1017"
     inkscape:window-x="-8"
     inkscape:window-y="-8"
     inkscape:window-maximized="1" />
  <metadata
     id="metadata5">
    <rdf:RDF>
      <cc:Work
         rdf:about="">
        <dc:format>image/svg+xml</dc:format>
        <dc:type
           rdf:resource="http://purl.org/dc/dcmitype/StillImage" />
        <dc:title></dc:title>
      </cc:Work>
    </rdf:RDF>
  </metadata>
  <g
     inkscape:label="Layer 1"
     inkscape:groupmode="layer"
     id="layer1"
     transform="translate(-73.377201,-137.3567)">
    <g
       transform="translate(-162.36294,-187.04745)"
       id="g5027">
      <path
         inkscape:connector-curvature="0"
         id="path826"
         d="m 245.25628,324.40426 c -0.072,-0.001 -0.13511,0.005 -0.18532,0.0205 -0.2043,0.0634 -0.31323,0.21765 -0.37606,0.37738 v 7.0405 l 3.34332,0.8987 0.23721,-0.88816 -2.21375,-1.28223 v -1.39212 l 1.96619,-1.13879 0.0997,0.0611 -0.46045,1.72385 1.22309,0.63835 0.80817,-3.02593 -4.32436,-3.02572 c -0.0412,-0.004 -0.0807,-0.007 -0.11773,-0.007 z"
         style="display:inline;fill:#00ff00;stroke:none;stroke-width:0.01966329px;stroke-linecap:butt;stroke-linejoin:miter;stroke-opacity:1"
         sodipodi:nodetypes="cccccccccccccccc" />
      <path
         style="display:inline;fill:#00ff00;stroke:none;stroke-width:0.01966329px;stroke-linecap:butt;stroke-linejoin:miter;stroke-opacity:1"
         d="m 251.59404,329.70431 -1.88135,3.77382 3.475,2.12467 3.50031,-1.80521 c 0.10216,-0.0691 0.23077,-0.14748 -0.0554,-0.42202 z m 0.70114,1.91326 2.35929,1.76554 -1.19546,0.77149 -1.98326,-1.11319 z"
         id="path828"
         inkscape:connector-curvature="0" />
      <path
         style="display:inline;fill:#00ff00;stroke:none;stroke-width:0.01966329px;stroke-linecap:butt;stroke-linejoin:miter;stroke-opacity:1"
         d="m 252.53394,339.00042 -2.552,1.52777 1.66574,6.096 3.53834,-6.1484 z m -0.0425,1.39545 1.21462,0.63899 -1.22779,1.99281 -0.82819,-1.81587 z"
         id="path830"
         inkscape:connector-curvature="0"
         sodipodi:nodetypes="cccccccccc" />
      <path
         style="display:inline;fill:#00ff00;stroke:none;stroke-width:0.01966329px;stroke-linecap:butt;stroke-linejoin:miter;stroke-opacity:1"
         d="m 248.44395,341.14565 -3.79329,0.9739 v 15.59532 l 0.008,-0.0235 v 0.0597 c 0,0 -0.005,0.10162 -0.008,0.25681 v 0.52395 c 0.003,0.13126 0.008,0.26845 0.0178,0.40302 0.0187,0.26792 0.01,0.95493 0.55528,0.1094 0.18874,-0.29262 0.34313,-0.52556 0.46733,-0.7099 l 5.14987,-8.13771 -1.45988,-5.28409 -1.46325,0.60008 1.07675,4.05097 -2.53529,4.60954 v -10.87927 l 2.38802,-0.65647 z"
         id="path832"
         inkscape:connector-curvature="0" />
      <path
         style="display:inline;fill:#00ff00;stroke:none;stroke-width:0.01966329px;stroke-linecap:butt;stroke-linejoin:miter;stroke-opacity:1"
         d="m 249.57478,338.42638 -1.80764,1.04701 -2.2183,0.59631 h -1.47094 l -2.16304,-0.58146 -1.62943,-0.94378 1.62875,-0.94339 1.46857,0.85061 1.26891,0.3411 1.47316,-0.39601 1.56053,-0.90387 0.16827,-0.0975 z"
         id="path834"
         inkscape:connector-curvature="0" />
      <path
         style="display:inline;fill:#00ff00;stroke:none;stroke-width:0.01966329px;stroke-linecap:butt;stroke-linejoin:miter;stroke-opacity:1"
         d="m 243.2646,333.98177 -2.4203,0.65059 -3.88796,2.25195 -0.64033,0.11083 0.0135,6e-4 c 0,0 -0.30737,0.0647 -0.47097,0.0895 -0.12033,0.0183 -0.15176,0.10653 -0.0813,0.19348 l 1.88783,1.09346 3.1964,-1.8514 2.58337,-0.69444 h 3.04498 l 2.31167,0.62139 2.5139,1.45608 1.46958,-0.85119 c 0.0713,-0.0739 0.13824,-0.16944 0.0213,-0.18022 h -0.76352 l -2.754,-1.59514 -1.08423,-0.62801 -2.48318,-0.66751 z"
         id="path836"
         inkscape:connector-curvature="0" />
    </g>
  </g>
</svg>
