<?xml version="1.0" encoding="UTF-8" standalone="no"?>
<!-- Created with Inkscape (http://www.inkscape.org/) -->

<svg
   xmlns:dc="http://purl.org/dc/elements/1.1/"
   xmlns:cc="http://creativecommons.org/ns#"
   xmlns:rdf="http://www.w3.org/1999/02/22-rdf-syntax-ns#"
   xmlns:svg="http://www.w3.org/2000/svg"
   xmlns="http://www.w3.org/2000/svg"
   xmlns:sodipodi="http://sodipodi.sourceforge.net/DTD/sodipodi-0.dtd"
   xmlns:inkscape="http://www.inkscape.org/namespaces/inkscape"
   width="43.767307mm"
   height="36mm"
   viewBox="0 0 43.767307 36"
   version="1.1"
   id="svg8"
   inkscape:version="0.92.3 (2405546, 2018-03-11)"
   sodipodi:docname="logos_PendantsEarringsBase.svg">
  <defs
     id="defs2" />
  <sodipodi:namedview
     id="base"
     pagecolor="#ffffff"
     bordercolor="#666666"
     borderopacity="1.0"
     inkscape:pageopacity="0.0"
     inkscape:pageshadow="2"
     inkscape:zoom="3.959798"
     inkscape:cx="36.845"
     inkscape:cy="84.103936"
     inkscape:document-units="mm"
     inkscape:current-layer="layer5"
     showgrid="false"
     inkscape:window-width="1920"
     inkscape:window-height="1017"
     inkscape:window-x="-8"
     inkscape:window-y="-8"
     inkscape:window-maximized="1"
     fit-margin-top="0"
     fit-margin-left="0"
     fit-margin-right="0"
     fit-margin-bottom="0" />
  <metadata
     id="metadata5">
    <rdf:RDF>
      <cc:Work
         rdf:about="">
        <dc:format>image/svg+xml</dc:format>
        <dc:type
           rdf:resource="http://purl.org/dc/dcmitype/StillImage" />
        <dc:title></dc:title>
      </cc:Work>
    </rdf:RDF>
  </metadata>
  <g
     inkscape:label="Backplate"
     inkscape:groupmode="layer"
     id="layer1"
     style="display:inline"
     transform="translate(-17.164016,-213.09871)">
    <g
       id="g1095"
       transform="matrix(0.07419856,0,0,0.07443758,25.617331,223.98407)">
      <path
         style="display:inline;fill:#008000;stroke:none;stroke-width:0.74420655px;stroke-linecap:butt;stroke-linejoin:miter;stroke-opacity:1"
         d="m 501.05859,-410.76367 c -0.53094,-0.002 -1.0609,0.006 -1.59179,0.0234 -29.77248,-0.2464 -45.12789,36.09939 -37.42774,61.58203 0.3921,84.19139 -0.83014,168.39125 0.67969,252.576169 15.37364,-0.632197 4.25283,16.597443 6.41797,25.123047 -0.28254,7.553272 2.24565,15.217999 0.38476,22.65625 -56.15955,-3.521917 -111.55842,14.414561 -162.24804,36.814453 -49.03877,24.690844 -91.87761,62.695531 -145.40235,77.207031 -16.65713,0.467119 -41.01607,7.709891 -38.83593,28.636719 9.70938,26.060681 41.10894,30.246901 61.29882,44.669921 11.51284,7.77554 26.74549,23.31152 41.11524,11.53125 17.98382,-9.42927 35.55836,-23.20239 54.17187,-29.43555 5.3368,4.44079 19.86439,7.77915 11.76758,16.75 -4.85922,18.25938 18.49658,22.8973 29.47266,30.58594 45.67722,29.90611 99.34404,45.37929 153.23047,51.04492 -0.55167,16.11165 5.93786,35.99424 -9.14258,47.39844 -11.57328,19.4566 -0.59833,42.79623 -4.28711,63.875 0.82655,200.78426 -3.36998,401.726 2.35351,602.40625 4.67952,19.45525 34.72191,23.3143 43.5918,5.10352 30.35795,-37.91691 51.97757,-81.87079 79.90235,-121.52344 48.9406,-77.02096 97.86119,-154.04675 146.75585,-231.09766 -10.6791,-41.71982 -24.95578,-83.47787 -33.2539,-124.96289 8.19202,-2.69945 17.32237,-10.3419 25.00781,-10.0332 0.4461,12.97769 13.62477,28.46569 27.11719,19.69531 50.98592,-88.19432 101.81785,-176.47649 152.77148,-264.68945 -5.3674,2.53825 -21.84991,-5.30555 -11.54101,-10.71289 43.81186,-52.67045 46.06688,-130.55028 16.57422,-190.5957056 -6.82413,-12.1604599 12.87607,-11.9519033 19.05664,-16.9980464 17.1506,-5.591866 36.29862,-25.450036 23.95312,-43.71875 -15.03378,-22.556245 -42.72101,-31.268441 -61.88672,-49.599608 -54.56891,-39.76457 -102.16047,-73.58415 -156.79807,-113.25803 -6.08838,-3.63649 -6.05033,15.36602 -11.74099,17.59592 -17.099,-7.56998 -32.79783,-14.12491 -48.41601,-22.68945 6.11097,-17.65871 11.1522,-36.39839 14.97656,-54.24415 -4.33934,-20.92623 -29.97715,-23.47873 -42.80078,-37.3457 -46.42778,-31.77774 -90.87931,-67.71581 -140.45118,-94.17773 -1.58894,-0.10611 -3.18255,-0.18827 -4.77539,-0.19336 z m 39.61329,82.71679 c 21.49976,4.7e-4 38.92835,17.42993 38.92773,38.92969 -4.6e-4,21.499 -17.42873,38.92727 -38.92773,38.92774 -21.49977,6.2e-4 -38.92923,-17.42797 -38.92969,-38.92774 -6.2e-4,-21.50053 17.42916,-38.93031 38.92969,-38.92969 z m 42.1875,107.66016 -0.60938,2.42383 c -6.02373,15.70901 -13.02333,40.54391 6.87305,49.62305 17.95096,6.5309 33.50391,20.44121 52.16797,24.22851 7.08177,0.12568 14.02302,-8.0788 19.57812,-0.0508 9.68202,5.30005 22.08932,8.62937 29.17188,16.33399 -6.21818,9.20024 -8.21801,24.57407 -18.59571,29.021479 -8.81448,-5.005509 -17.27212,-10.920559 -27.50586,-12.447269 -17.18612,-9.67542 -29.87758,-26.12793 -48.77343,-33.07226 -14.05334,-9.71436 -32.83453,-14.32422 -43.5254,-27.77149 -3.41377,-13.22404 -4.90539,-33.50826 12.45313,-37.13086 7.02875,-2.44683 12.50498,-7.43237 18.76563,-11.1582 z m 191.63085,128.640626 c 18.70262,9.978127 34.23398,27.704392 51.94727,37.285156 -7.50298,10.606876 -22.79328,10.018466 -30.4668,-0.197265 -10.63067,-6.11505 -23.6207,-11.014745 -32.0664,-18.652344 3.83121,-5.551588 3.48723,-15.98756 10.58593,-18.435547 z m -224.48828,18.166016 c 23.7386,7.593678 48.69828,11.527407 72.67578,17.152344 13.14204,5.282014 30.52374,6.403953 36.32422,21.611328 4.01588,6.25309 16.70491,6.01518 18.13477,11.849609 C 672.22628,-15.56789 668.5493,-1.8680989 661.7207,0.79882812 629.12563,-20.68928 591.20351,-32.481678 553.45312,-40.304688 c -5.72284,-8.906835 -3.14196,-23.045592 -3.45117,-33.27539 z m 222.40039,107.490234 2.27149,1.660156 1.77148,1.294922 c 11.68954,9.523652 29.42941,16.62531 42.91016,6.591797 16.8709,4.533756 21.25783,26.710372 24.37109,41.769531 3.40534,21.237328 -7.02143,42.964808 -26.04101,52.777348 -8.17782,9.1033 -21.98765,12.50077 -31.92383,4.80078 -29.61693,-4.30545 -48.4836,24.21269 -73.61524,34.05664 -18.57466,11.17958 -38.1979,21.93571 -56.20898,34.58594 6.72216,0.65578 11.52098,14.0363 1.97656,12.58007 -9.75934,2.94546 -22.63343,8.56195 -30.8457,-0.79101 -18.73896,-2.56347 -37.19656,7.06081 -54.27734,11.60351 -6.18291,3.82953 -9.66417,-1.87206 -7.74219,-7.60351 -3.16232,-10.03823 -3.43532,-26.5594 11.35547,-25.0625 42.32715,-11.16008 78.10914,-37.56841 115.26953,-59.48438 1.66554,-7.78338 -10.99429,-14.69125 -0.61719,-19.56836 12.36963,-9.34727 19.70262,7.38104 30.00195,10.75 23.52694,7.07068 39.96948,-17.16505 60.5293,-23.34765 15.18277,-6.16734 34.56215,-25.163818 22.35938,-41.718752 -12.87626,-17.232886 -40.09611,0.06169 -52.10157,-16.337891 9.12968,-3.148038 13.23638,-13.016188 20.55664,-18.556641 z m -318.1914,23.160156 c 1.94564,-0.02299 3.90023,-3.32e-4 5.86133,0.07227 44.2327,1.034993 90.11928,-3.677888 132.23632,12.458984 4.60717,-0.692631 20.22565,5.150215 9.63086,9.652344 -17.25906,5.246073 -32.35354,14.34741 -46.99218,24.57812 -33.88728,20.79847 -77.52307,37.25698 -115.71289,17.13477 -22.69729,-10.00096 -42.5576,-25.399681 -65.40821,-35.097655 -7.3498,7.864413 -17.38792,-13.681887 -4.75195,-10.240235 28.42213,-7.56144 55.95212,-18.213708 85.13672,-18.558594 z M 779.75781,234.50391 c 4.47227,2.0709 21.85284,6.27695 13.49805,12.72461 -6.15508,6.65394 -9.88221,20.86752 -15.37109,23.53906 -3.68594,-9.90408 -18.31179,-21.93066 -5.30665,-30.60352 2.07295,-2.00041 4.09582,-5.2283 7.17969,-5.66015 z m -96.67773,61.67187 c 5.34718,10.67683 4.38374,24.39139 9.35156,35.79102 1.82446,9.08855 11.49438,21.19028 5.87305,29.39648 -11.10583,2.54768 -22.40273,13.34266 -33.59961,5.10938 -17.85958,-9.0199 -32.31732,11.25532 -49.11914,14.07617 -10.413,6.76775 -30.94427,5.62243 -33.6543,19.45117 2.17586,13.63517 9.43475,25.8613 10.88672,39.88086 10.31216,38.66208 20.62537,77.32427 30.9375,115.98633 -19.36297,35.08927 -38.70447,70.16438 -58.0918,105.23633 -0.0225,-108.59849 -0.0241,-217.19644 -0.0156,-325.79493 31.36528,-9.28935 63.73149,-15.39908 94.21679,-27.51953 -3.09025,-13.30284 16.28243,-6.91917 23.21485,-11.61328 z"
         transform="matrix(0.35552403,0,0,0.35552403,135.74405,-0.1982167)"
         id="path826-2"
         inkscape:connector-curvature="0"
         sodipodi:nodetypes="cccccccccccccccccccccccccccccccccccccccccccccccccccccccccccccccccccccccccccccccccccccccscccccccsccccccccccccccccccccc" />
    </g>
    <g
       id="g1174"
       transform="matrix(0.09972461,0,0,0.09888231,35.59339,224.41628)">
      <path
         transform="scale(0.26458333)"
         inkscape:connector-curvature="0"
         id="path1038-8"
         d="m -296.33789,-382.83984 -3.07227,2.20117 -1.61523,1.1582 c -36.80634,22.82544 -67.52214,55.20971 -107.50977,72.82227 H -698.4668 v 219.287106 c 90.59105,68.256888 182.96651,134.109885 272.51758,203.658204 -4.14758,16.41869 11.06292,32.92254 23.82813,36.57617 -25.86403,1.12101 -27.69769,33.73305 -24.61133,53.12891 0.92326,16.28737 -7.8171,37.98178 11.24219,47.44336 12.46869,8.21231 30.45577,4.62772 42.36523,5.82422 -3.25023,96.83601 0.0412,193.93695 -1.04883,290.86914 -18.31918,1.12981 -17.76101,1.83216 -17.02929,-35.08789 -0.48862,-35.08657 -2.42811,-70.17347 -1.10743,-105.26563 -69.39227,0.41756 -138.7835,0.85699 -208.17578,1.27734 L -602.62891,629.25 c 180.47276,171.67199 111.4021,103.98649 289.04297,279.83398 18.16673,20.7377 18.74328,-1.02266 89.2793,-61.8125 0.54689,-196.86719 -1.08203,-393.74053 0.79102,-590.60351 20.15559,3.86405 51.81635,-3.7072 48.63867,-29.86719 -5.3237,-23.58261 9.39447,-59.55441 -19.15625,-72.93945 -10.02028,-1.29582 -4.3777,-1.90406 1.85351,-5.25586 14.7541,-7.15273 17.59376,-23.9675 20.94141,-37.75977 C -81.688765,45.168248 7.7276649,-22.284006 97.425781,-88.361328 V -306.28906 H -202.06445 c -31.42479,-25.51662 -62.84821,-51.0347 -94.27344,-76.55078 z m -1.42969,94.77539 a 41.626631,41.626631 0 0 1 41.62696,41.62695 41.626631,41.626631 0 0 1 -41.62696,41.62695 41.626631,41.626631 0 0 1 -41.625,-41.62695 41.626631,41.626631 0 0 1 41.625,-41.62695 z m -279.66601,103.98242 7.83984,0.41992 c 57.03515,2.68196 114.07314,-0.4477 170.82422,5.42578 32.96706,24.01636 65.9373,48.02773 98.90234,72.04688 38.03429,-21.4364 67.26305,-58.91258 109.19336,-72.16016 55.69221,0.62249 112.688977,-1.35171 167.523439,0.96289 2.741003,15.35461 4.046624,35.87321 -14.679687,41 -57.705508,42.218561 -115.091402,85.869727 -172.996092,127.1953138 -41.45374,-10.2483548 -87.01853,-33.4345948 -129.85547,-14.0253908 -21.18261,2.422425 -45.95321,23.93508352 -63.2207,1.789063 -56.29731,-44.779803 -118.8399,-84.728346 -171.11719,-132.662106 0.0903,-10.36142 -3.62809,-19.74901 -2.41406,-29.99219 z"
         style="display:inline;fill:#0000ff;stroke:none;stroke-width:0.99999994px;stroke-linecap:butt;stroke-linejoin:miter;stroke-opacity:1" />
    </g>
  </g>
  <g
     inkscape:groupmode="layer"
     id="layer5"
     inkscape:label="Highlight"
     transform="translate(-213.49685,-323.91817)">
    <g
       id="g5027">
      <path
         inkscape:connector-curvature="0"
         id="path826"
         d="m 245.25628,324.40426 c -0.072,-0.001 -0.13511,0.005 -0.18532,0.0205 -0.2043,0.0634 -0.31323,0.21765 -0.37606,0.37738 v 7.0405 l 3.34332,0.8987 0.23721,-0.88816 -2.21375,-1.28223 v -1.39212 l 1.96619,-1.13879 0.0997,0.0611 -0.46045,1.72385 1.22309,0.63835 0.80817,-3.02593 -4.32436,-3.02572 c -0.0412,-0.004 -0.0807,-0.007 -0.11773,-0.007 z m 1.02148,1.48557 a 1.2546366,1.2586782 0 0 1 1.25462,1.25871 1.2546366,1.2586782 0 0 1 -1.25462,1.25866 1.2546366,1.2586782 0 0 1 -1.25467,-1.25866 1.2546366,1.2586782 0 0 1 1.25467,-1.25871 z"
         style="display:inline;fill:#00ff00;stroke:none;stroke-width:0.01966329px;stroke-linecap:butt;stroke-linejoin:miter;stroke-opacity:1" />
      <path
         style="display:inline;fill:#00ff00;stroke:none;stroke-width:0.01966329px;stroke-linecap:butt;stroke-linejoin:miter;stroke-opacity:1"
         d="m 251.59404,329.70431 -1.88135,3.77382 3.475,2.12467 3.50031,-1.80521 c 0.10216,-0.0691 0.23077,-0.14748 -0.0554,-0.42202 z m 0.70114,1.91326 2.35929,1.76554 -1.19546,0.77149 -1.98326,-1.11319 z"
         id="path828"
         inkscape:connector-curvature="0" />
      <path
         style="display:inline;fill:#00ff00;stroke:none;stroke-width:0.01966329px;stroke-linecap:butt;stroke-linejoin:miter;stroke-opacity:1"
         d="m 252.53394,339.00042 -2.552,1.52777 1.66574,6.096 3.53834,-6.1484 z m -0.0425,1.39545 1.21462,0.63899 -1.22779,1.99281 -0.82819,-1.81587 z"
         id="path830"
         inkscape:connector-curvature="0"
         sodipodi:nodetypes="cccccccccc" />
      <path
         style="display:inline;fill:#00ff00;stroke:none;stroke-width:0.01966329px;stroke-linecap:butt;stroke-linejoin:miter;stroke-opacity:1"
         d="m 248.44395,341.14565 -3.79329,0.9739 v 15.59532 l 0.008,-0.0235 v 0.0597 c 0,0 -0.005,0.10162 -0.008,0.25681 v 0.52395 c 0.003,0.13126 0.008,0.26845 0.0178,0.40302 0.0187,0.26792 0.01,0.95493 0.55528,0.1094 0.18874,-0.29262 0.34313,-0.52556 0.46733,-0.7099 l 5.14987,-8.13771 -1.45988,-5.28409 -1.46325,0.60008 1.07675,4.05097 -2.53529,4.60954 v -10.87927 l 2.38802,-0.65647 z"
         id="path832"
         inkscape:connector-curvature="0" />
      <path
         style="display:inline;fill:#00ff00;stroke:none;stroke-width:0.01966329px;stroke-linecap:butt;stroke-linejoin:miter;stroke-opacity:1"
         d="m 249.57478,338.42638 -1.80764,1.04701 -2.2183,0.59631 h -1.47094 l -2.16304,-0.58146 -1.62943,-0.94378 1.62875,-0.94339 1.46857,0.85061 1.26891,0.3411 1.47316,-0.39601 1.56053,-0.90387 0.16827,-0.0975 z"
         id="path834"
         inkscape:connector-curvature="0" />
      <path
         style="display:inline;fill:#00ff00;stroke:none;stroke-width:0.01966329px;stroke-linecap:butt;stroke-linejoin:miter;stroke-opacity:1"
         d="m 243.2646,333.98177 -2.4203,0.65059 -3.88796,2.25195 -0.64033,0.11083 0.0135,6e-4 c 0,0 -0.30737,0.0647 -0.47097,0.0895 -0.12033,0.0183 -0.15176,0.10653 -0.0813,0.19348 l 1.88783,1.09346 3.1964,-1.8514 2.58337,-0.69444 h 3.04498 l 2.31167,0.62139 2.5139,1.45608 1.46958,-0.85119 c 0.0713,-0.0739 0.13824,-0.16944 0.0213,-0.18022 h -0.76352 l -2.754,-1.59514 -1.08423,-0.62801 -2.48318,-0.66751 z"
         id="path836"
         inkscape:connector-curvature="0" />
    </g>
    <path
       inkscape:connector-curvature="0"
       id="path1038"
       d="m 224.08464,325.96549 -2.58247,1.84058 h -7.40705 v 4.84601 l 7.24971,5.3385 v 0.66071 h 1.27939 v 1.21569 h -1.35932 v 1.53281 h 1.38596 v 8.82702 h -3.54488 v -1.50639 h 1.86575 v -2.1671 l -4.2912,0.0264 v 4.876 l 4.53104,4.38709 v -1.83675 h 1.35931 v 3.09205 l 1.46594,1.45355 1.37266,-1.36101 v -15.84371 h 1.26604 v -1.47998 h -1.27938 v -1.24216 h 1.27938 v -0.68713 l 7.22308,-5.31208 v -4.80994 h -7.51626 z m -0.0272,1.59055 c 0.0418,0 0.083,0.002 0.12374,0.006 0.21208,0.0208 0.40831,0.0947 0.57527,0.20808 a 1.2391748,1.2287083 0 0 1 0.002,10e-4 c 0.0325,0.0221 0.0638,0.0458 0.094,0.0708 a 1.2391748,1.2287083 0 0 1 0.008,0.007 c 0.0284,0.024 0.0558,0.0493 0.082,0.0757 a 1.2391748,1.2287083 0 0 1 0.009,0.009 c 0.0256,0.0264 0.05,0.054 0.0732,0.0826 a 1.2391748,1.2287083 0 0 1 0.007,0.009 c 0.0232,0.0293 0.0452,0.0597 0.0657,0.0911 a 1.2391748,1.2287083 0 0 1 0.005,0.007 c 0.021,0.0326 0.0405,0.0663 0.0584,0.10097 a 1.2391748,1.2287083 0 0 1 0.002,0.003 c 0.0183,0.0357 0.0349,0.0723 0.0496,0.10986 a 1.2391748,1.2287083 0 0 1 3e-4,6.1e-4 c 6e-5,1.6e-4 8e-5,3.5e-4 2e-4,5.1e-4 0.0147,0.0374 0.0275,0.0758 0.0385,0.11487 a 1.2391748,1.2287083 0 0 1 6e-4,0.002 c 0.0105,0.0378 0.0192,0.0762 0.0261,0.11538 a 1.2391748,1.2287083 0 0 1 0.001,0.006 c 0.006,0.0368 0.0108,0.0742 0.0137,0.112 a 1.2391748,1.2287083 0 0 1 10e-4,0.0151 c 0.002,0.0261 0.003,0.0524 0.003,0.079 0,0.0414 -0.002,0.0823 -0.006,0.12268 -0.021,0.21009 -0.0954,0.40451 -0.20953,0.56996 a 1.2391748,1.2287083 0 0 1 -0.002,0.003 c -0.0223,0.0322 -0.0461,0.0632 -0.0714,0.0931 a 1.2391748,1.2287083 0 0 1 -0.006,0.006 c -0.0244,0.0284 -0.05,0.0558 -0.0769,0.0819 a 1.2391748,1.2287083 0 0 1 -0.01,0.009 c -0.0267,0.0254 -0.0544,0.0496 -0.0833,0.0726 a 1.2391748,1.2287083 0 0 1 -0.009,0.007 c -0.0297,0.0232 -0.0605,0.045 -0.0923,0.0655 a 1.2391748,1.2287083 0 0 1 -0.007,0.004 c -0.0331,0.021 -0.0672,0.0404 -0.10235,0.0582 a 1.2391748,1.2287083 0 0 1 -0.003,0.002 c -0.036,0.0182 -0.073,0.0346 -0.111,0.0493 a 1.2391748,1.2287083 0 0 1 -6e-4,2.6e-4 c -2e-4,5e-5 -3e-4,8e-5 -5e-4,1.6e-4 -0.0379,0.0146 -0.0766,0.0274 -0.11616,0.0383 a 1.2391748,1.2287083 0 0 1 -0.002,4.6e-4 c -0.0383,0.0105 -0.0774,0.0192 -0.11709,0.0261 a 1.2391748,1.2287083 0 0 1 -0.005,9.7e-4 c -0.0372,0.006 -0.075,0.0108 -0.11332,0.0136 a 1.2391748,1.2287083 0 0 1 -0.0151,10e-4 c -0.0264,0.002 -0.0529,0.003 -0.0797,0.003 -0.0417,0 -0.083,-0.002 -0.12368,-0.006 -0.21205,-0.0208 -0.40828,-0.0947 -0.57523,-0.20803 a 1.2391748,1.2287083 0 0 1 -0.002,-0.002 c -0.0325,-0.0222 -0.0639,-0.0458 -0.0941,-0.0709 a 1.2391748,1.2287083 0 0 1 -0.008,-0.007 c -0.0286,-0.0241 -0.056,-0.0495 -0.0823,-0.076 a 1.2391748,1.2287083 0 0 1 -0.008,-0.008 c -0.0257,-0.0265 -0.0502,-0.0542 -0.0735,-0.083 a 1.2391748,1.2287083 0 0 1 -0.007,-0.009 c -0.0233,-0.0294 -0.0454,-0.06 -0.066,-0.0915 a 1.2391748,1.2287083 0 0 1 -0.004,-0.007 c -0.0212,-0.0328 -0.0408,-0.0667 -0.0588,-0.10159 a 1.2391748,1.2287083 0 0 1 -0.002,-0.003 c -0.0183,-0.0357 -0.0349,-0.0724 -0.0497,-0.11001 a 1.2391748,1.2287083 0 0 1 -4e-4,-0.001 c -0.0146,-0.0373 -0.0274,-0.0756 -0.0384,-0.11456 a 1.2391748,1.2287083 0 0 1 -8e-4,-0.003 c -0.0104,-0.0375 -0.0191,-0.0757 -0.026,-0.11451 a 1.2391748,1.2287083 0 0 1 -0.001,-0.007 c -0.006,-0.0366 -0.0107,-0.0738 -0.0136,-0.11145 a 1.2391748,1.2287083 0 0 1 -0.001,-0.0151 c -0.002,-0.0261 -0.003,-0.0524 -0.003,-0.079 0,-0.0414 0.002,-0.0823 0.006,-0.12264 0.021,-0.20999 0.0954,-0.40441 0.20938,-0.5698 a 1.2391748,1.2287083 0 0 1 0.003,-0.004 c 0.0221,-0.0318 0.0457,-0.0626 0.0707,-0.0921 a 1.2391748,1.2287083 0 0 1 0.007,-0.008 c 0.0241,-0.028 0.0493,-0.0549 0.0757,-0.0807 a 1.2391748,1.2287083 0 0 1 0.0107,-0.0102 c 0.0263,-0.025 0.0537,-0.0489 0.0822,-0.0715 a 1.2391748,1.2287083 0 0 1 0.01,-0.008 c 0.0295,-0.023 0.06,-0.0446 0.0916,-0.0649 a 1.2391748,1.2287083 0 0 1 0.007,-0.005 c 0.0329,-0.0208 0.0668,-0.0401 0.10163,-0.0578 a 1.2391748,1.2287083 0 0 1 0.004,-0.002 c 0.0358,-0.018 0.0726,-0.0343 0.11023,-0.0489 a 1.2391748,1.2287083 0 0 1 0.002,-7.1e-4 c 0.0376,-0.0145 0.0762,-0.0272 0.11549,-0.0381 a 1.2391748,1.2287083 0 0 1 0.002,-6.1e-4 c 0.0381,-0.0104 0.0769,-0.0191 0.11636,-0.0259 a 1.2391748,1.2287083 0 0 1 0.006,-10e-4 c 0.0371,-0.006 0.0748,-0.0107 0.11297,-0.0136 a 1.2391748,1.2287083 0 0 1 0.0152,-10e-4 c 0.0264,-0.002 0.0529,-0.003 0.0797,-0.003 z m -7.93666,2.26818 5.41062,0.10572 2.49384,1.80139 2.41349,-1.7554 h 5.48746 v 1.69827 l -5.41062,3.96425 -2.5193,-0.66935 -2.45699,0.65279 -5.4185,-4.05341 z"
       style="display:inline;fill:#00ccff;stroke-width:0.0262738" />
  </g>
</svg>
