<?xml version="1.0" encoding="UTF-8" standalone="no"?>
<!-- Created with Inkscape (http://www.inkscape.org/) -->

<svg
   xmlns:dc="http://purl.org/dc/elements/1.1/"
   xmlns:cc="http://creativecommons.org/ns#"
   xmlns:rdf="http://www.w3.org/1999/02/22-rdf-syntax-ns#"
   xmlns:svg="http://www.w3.org/2000/svg"
   xmlns="http://www.w3.org/2000/svg"
   xmlns:sodipodi="http://sodipodi.sourceforge.net/DTD/sodipodi-0.dtd"
   xmlns:inkscape="http://www.inkscape.org/namespaces/inkscape"
   width="19.80348mm"
   height="32.58617mm"
   viewBox="0 0 19.80348 32.58617"
   version="1.1"
   id="svg8"
   inkscape:version="0.92.3 (2405546, 2018-03-11)"
   sodipodi:docname="logo_RES.svg"
   inkscape:export-filename="D:\Gits\IngressThings\PNG\logo_RES_1000width.png"
   inkscape:export-xdpi="1282.6"
   inkscape:export-ydpi="1282.6">
  <defs
     id="defs2" />
  <sodipodi:namedview
     id="base"
     pagecolor="#ffffff"
     bordercolor="#666666"
     borderopacity="1.0"
     inkscape:pageopacity="0.0"
     inkscape:pageshadow="2"
     inkscape:zoom="1.979899"
     inkscape:cx="-80.559846"
     inkscape:cy="86.922938"
     inkscape:document-units="mm"
     inkscape:current-layer="layer1"
     showgrid="false"
     fit-margin-top="0"
     fit-margin-left="0"
     fit-margin-right="0"
     fit-margin-bottom="0"
     inkscape:window-width="1920"
     inkscape:window-height="1017"
     inkscape:window-x="-8"
     inkscape:window-y="-8"
     inkscape:window-maximized="1" />
  <metadata
     id="metadata5">
    <rdf:RDF>
      <cc:Work
         rdf:about="">
        <dc:format>image/svg+xml</dc:format>
        <dc:type
           rdf:resource="http://purl.org/dc/dcmitype/StillImage" />
        <dc:title />
      </cc:Work>
    </rdf:RDF>
  </metadata>
  <g
     inkscape:label="Layer 1"
     inkscape:groupmode="layer"
     id="layer1"
     transform="translate(-0.59827001,-263.04732)">
    <path
       inkscape:connector-curvature="0"
       id="path1038"
       d="M 10.58779,263.04732 8.0053201,264.8879 H 0.59827001 v 4.84601 l 7.24971009,5.3385 v 0.66071 h 1.27939 v 1.21569 H 7.76805 v 1.53281 h 1.38596 v 8.82702 H 5.6091301 v -1.50639 H 7.47488 v -2.1671 l -4.2912,0.0264 v 4.876 l 4.53104,4.38709 v -1.83675 h 1.3593101 v 3.09205 l 1.4659399,1.45355 1.37266,-1.36101 v -15.84371 h 1.26604 v -1.47998 h -1.27938 v -1.24216 h 1.27938 v -0.68713 l 7.22308,-5.31208 v -4.80994 h -7.51626 z m -0.0272,1.59055 c 0.0418,0 0.083,0.002 0.12374,0.006 0.21208,0.0208 0.40831,0.0947 0.57527,0.20808 a 1.2391748,1.2287083 0 0 1 0.002,0.001 c 0.0325,0.0221 0.0638,0.0458 0.094,0.0708 a 1.2391748,1.2287083 0 0 1 0.008,0.007 c 0.0284,0.024 0.0558,0.0493 0.082,0.0757 a 1.2391748,1.2287083 0 0 1 0.009,0.009 c 0.0256,0.0264 0.05,0.054 0.0732,0.0826 a 1.2391748,1.2287083 0 0 1 0.007,0.009 c 0.0232,0.0293 0.0452,0.0597 0.0657,0.0911 a 1.2391748,1.2287083 0 0 1 0.005,0.007 c 0.021,0.0326 0.0405,0.0663 0.0584,0.10097 a 1.2391748,1.2287083 0 0 1 0.002,0.003 c 0.0183,0.0357 0.0349,0.0723 0.0496,0.10986 a 1.2391748,1.2287083 0 0 1 2.91e-4,6.1e-4 c 6e-5,1.6e-4 8.1e-5,3.5e-4 2e-4,5.1e-4 0.0147,0.0374 0.0275,0.0758 0.0385,0.11487 a 1.2391748,1.2287083 0 0 1 6.09e-4,0.002 c 0.0105,0.0378 0.0192,0.0762 0.0261,0.11538 a 1.2391748,1.2287083 0 0 1 10e-4,0.006 c 0.006,0.0368 0.0108,0.0742 0.0137,0.112 a 1.2391748,1.2287083 0 0 1 0.001,0.0151 c 0.002,0.0261 0.003,0.0524 0.003,0.079 0,0.0414 -0.002,0.0823 -0.006,0.12268 -0.021,0.21009 -0.0954,0.40451 -0.20953,0.56996 a 1.2391748,1.2287083 0 0 1 -0.002,0.003 c -0.0223,0.0322 -0.0461,0.0632 -0.0714,0.0931 a 1.2391748,1.2287083 0 0 1 -0.006,0.006 c -0.0244,0.0284 -0.05,0.0558 -0.0769,0.0819 a 1.2391748,1.2287083 0 0 1 -0.01,0.009 c -0.0267,0.0254 -0.0544,0.0496 -0.0833,0.0726 a 1.2391748,1.2287083 0 0 1 -0.009,0.007 c -0.0297,0.0232 -0.0605,0.045 -0.0923,0.0655 a 1.2391748,1.2287083 0 0 1 -0.007,0.004 c -0.0331,0.021 -0.0672,0.0404 -0.10235,0.0582 a 1.2391748,1.2287083 0 0 1 -0.003,0.002 c -0.036,0.0182 -0.073,0.0346 -0.111001,0.0493 a 1.2391748,1.2287083 0 0 1 -6.08e-4,2.6e-4 c -2e-4,5e-5 -2.91e-4,8e-5 -5.03e-4,1.6e-4 -0.0379,0.0146 -0.0766,0.0274 -0.11616,0.0383 a 1.2391748,1.2287083 0 0 1 -0.002,4.5e-4 c -0.0383,0.0105 -0.0774,0.0192 -0.11709,0.0261 a 1.2391748,1.2287083 0 0 1 -0.005,9.8e-4 c -0.0372,0.006 -0.075,0.0108 -0.11332,0.0136 a 1.2391748,1.2287083 0 0 1 -0.0151,10e-4 c -0.0264,0.002 -0.0529,0.003 -0.0797,0.003 -0.0417,0 -0.083,-0.002 -0.12368,-0.006 -0.21205,-0.0208 -0.40828,-0.0947 -0.5752298,-0.20803 a 1.2391748,1.2287083 0 0 1 -0.00201,-0.002 c -0.0325,-0.0222 -0.0639,-0.0458 -0.0941,-0.0709 a 1.2391748,1.2287083 0 0 1 -0.008,-0.007 c -0.0286,-0.0241 -0.056,-0.0495 -0.0823,-0.076 a 1.2391748,1.2287083 0 0 1 -0.008,-0.008 c -0.025699,-0.0265 -0.0502,-0.0542 -0.0735,-0.083 a 1.2391748,1.2287083 0 0 1 -0.007,-0.009 c -0.023279,-0.0294 -0.045378,-0.06 -0.065978,-0.0915 a 1.2391748,1.2287083 0 0 1 -0.004,-0.007 c -0.021201,-0.0328 -0.0408,-0.0667 -0.0588,-0.10159 a 1.2391748,1.2287083 0 0 1 -0.00201,-0.003 c -0.018299,-0.0357 -0.0349,-0.0724 -0.0497,-0.11001 a 1.2391748,1.2287083 0 0 1 -3.969e-4,-10e-4 c -0.0146,-0.0373 -0.0274,-0.0756 -0.0384,-0.11456 a 1.2391748,1.2287083 0 0 1 -7.938e-4,-0.003 c -0.010401,-0.0375 -0.0191,-0.0757 -0.026001,-0.11451 a 1.2391748,1.2287083 0 0 1 -0.00101,-0.007 c -0.006,-0.0366 -0.0107,-0.0738 -0.0136,-0.11145 a 1.2391748,1.2287083 0 0 1 -0.00101,-0.0151 c -0.00201,-0.0261 -0.003,-0.0524 -0.003,-0.079 0,-0.0414 0.00201,-0.0823 0.006,-0.12264 0.021,-0.20999 0.0954,-0.40441 0.2093798,-0.5698 a 1.2391748,1.2287083 0 0 1 0.003,-0.004 c 0.022101,-0.0318 0.0457,-0.0626 0.0707,-0.0921 a 1.2391748,1.2287083 0 0 1 0.007,-0.008 c 0.024101,-0.028 0.0493,-0.0549 0.0757,-0.0807 a 1.2391748,1.2287083 0 0 1 0.0107,-0.0102 c 0.0263,-0.025 0.0537,-0.0489 0.0822,-0.0715 a 1.2391748,1.2287083 0 0 1 0.010001,-0.008 c 0.0295,-0.023 0.06,-0.0446 0.0916,-0.0649 a 1.2391748,1.2287083 0 0 1 0.007,-0.005 c 0.0329,-0.0208 0.0668,-0.0401 0.1016299,-0.0578 a 1.2391748,1.2287083 0 0 1 0.004,-0.002 c 0.03582,-0.018 0.07262,-0.0343 0.110251,-0.0489 a 1.2391748,1.2287083 0 0 1 0.002,-7.1e-4 c 0.0376,-0.0145 0.0762,-0.0272 0.11549,-0.0381 a 1.2391748,1.2287083 0 0 1 0.002,-6.1e-4 c 0.0381,-0.0104 0.0769,-0.0191 0.11636,-0.0259 a 1.2391748,1.2287083 0 0 1 0.006,-10e-4 c 0.0371,-0.006 0.0748,-0.0107 0.11297,-0.0136 a 1.2391748,1.2287083 0 0 1 0.0152,-0.001 c 0.0264,-0.002 0.0529,-0.003 0.0797,-0.003 z m -7.93666,2.26818 5.4106202,0.10572 2.4938398,1.80139 2.41349,-1.7554 h 5.48746 v 1.69827 l -5.41062,3.96425 -2.5193,-0.66935 -2.45699,0.65279 -5.4185,-4.05341 z"
       style="display:inline;fill:#00ccff;stroke-width:0.0262738" />
  </g>
</svg>
